<svg viewBox="0 0 623.92041015625 400" xmlns="http://www.w3.org/2000/svg"><g><g><g><g><g><line x1="51.5625" y1="378" x2="46.5625" y2="378" style="visibility: inherit;" fill="rgb(0, 0, 0)" stroke="rgb(204, 204, 204)" stroke-width="1px"></line><line x1="51.5625" y1="336" x2="46.5625" y2="336" style="visibility: inherit;" fill="rgb(0, 0, 0)" stroke="rgb(204, 204, 204)" stroke-width="1px"></line><line x1="51.5625" y1="294" x2="46.5625" y2="294" style="visibility: inherit;" fill="rgb(0, 0, 0)" stroke="rgb(204, 204, 204)" stroke-width="1px"></line><line x1="51.5625" y1="252" x2="46.5625" y2="252" style="visibility: inherit;" fill="rgb(0, 0, 0)" stroke="rgb(204, 204, 204)" stroke-width="1px"></line><line x1="51.5625" y1="210" x2="46.5625" y2="210" style="visibility: inherit;" fill="rgb(0, 0, 0)" stroke="rgb(204, 204, 204)" stroke-width="1px"></line><line x1="51.5625" y1="168" x2="46.5625" y2="168" style="visibility: inherit;" fill="rgb(0, 0, 0)" stroke="rgb(204, 204, 204)" stroke-width="1px"></line><line x1="51.5625" y1="126.00000000000001" x2="46.5625" y2="126.00000000000001" style="visibility: inherit;" fill="rgb(0, 0, 0)" stroke="rgb(204, 204, 204)" stroke-width="1px"></line><line x1="51.5625" y1="84.00000000000004" x2="46.5625" y2="84.00000000000004" style="visibility: inherit;" fill="rgb(0, 0, 0)" stroke="rgb(204, 204, 204)" stroke-width="1px"></line><line x1="51.5625" y1="42.00000000000002" x2="46.5625" y2="42.00000000000002" style="visibility: inherit;" fill="rgb(0, 0, 0)" stroke="rgb(204, 204, 204)" stroke-width="1px"></line><line x1="51.5625" y1="0" x2="46.5625" y2="0" style="visibility: inherit;" fill="rgb(0, 0, 0)" stroke="rgb(204, 204, 204)" stroke-width="1px"></line></g><g transform="translate(41.5625, 0)"><text x="0" y="378" dx="0em" dy="0.3em" style="text-anchor: end; visibility: hidden; font-family: Roboto, sans-serif; font-size: 12px; font-weight: 200;" fill="rgb(50, 49, 63)" stroke="none" stroke-width="1px">-0.1</text><text x="0" y="336" dx="0em" dy="0.3em" style="text-anchor: end; visibility: inherit; font-family: Roboto, sans-serif; font-size: 12px; font-weight: 200;" fill="rgb(50, 49, 63)" stroke="none" stroke-width="1px">0</text><text x="0" y="294" dx="0em" dy="0.3em" style="text-anchor: end; visibility: inherit; font-family: Roboto, sans-serif; font-size: 12px; font-weight: 200;" fill="rgb(50, 49, 63)" stroke="none" stroke-width="1px">0.1</text><text x="0" y="252" dx="0em" dy="0.3em" style="text-anchor: end; visibility: inherit; font-family: Roboto, sans-serif; font-size: 12px; font-weight: 200;" fill="rgb(50, 49, 63)" stroke="none" stroke-width="1px">0.2</text><text x="0" y="210" dx="0em" dy="0.3em" style="text-anchor: end; visibility: inherit; font-family: Roboto, sans-serif; font-size: 12px; font-weight: 200;" fill="rgb(50, 49, 63)" stroke="none" stroke-width="1px">0.3</text><text x="0" y="168" dx="0em" dy="0.3em" style="text-anchor: end; visibility: inherit; font-family: Roboto, sans-serif; font-size: 12px; font-weight: 200;" fill="rgb(50, 49, 63)" stroke="none" stroke-width="1px">0.4</text><text x="0" y="126.00000000000001" dx="0em" dy="0.3em" style="text-anchor: end; visibility: inherit; font-family: Roboto, sans-serif; font-size: 12px; font-weight: 200;" fill="rgb(50, 49, 63)" stroke="none" stroke-width="1px">0.5</text><text x="0" y="84.00000000000004" dx="0em" dy="0.3em" style="text-anchor: end; visibility: inherit; font-family: Roboto, sans-serif; font-size: 12px; font-weight: 200;" fill="rgb(50, 49, 63)" stroke="none" stroke-width="1px">0.6</text><text x="0" y="42.00000000000002" dx="0em" dy="0.3em" style="text-anchor: end; visibility: inherit; font-family: Roboto, sans-serif; font-size: 12px; font-weight: 200;" fill="rgb(50, 49, 63)" stroke="none" stroke-width="1px">0.7</text><text x="0" y="0" dx="0em" dy="0.3em" style="text-anchor: end; visibility: hidden; font-family: Roboto, sans-serif; font-size: 12px; font-weight: 200;" fill="rgb(50, 49, 63)" stroke="none" stroke-width="1px">0.8</text></g><line x1="51.5625" y1="0" x2="51.5625" y2="378" fill="rgb(0, 0, 0)" stroke="rgb(204, 204, 204)" stroke-width="1px"></line></g></g><g transform="translate(51, 0)" clip-path="url(#clip_0)"><clipPath id="clip_0"><rect width="572" height="377"></rect></clipPath><g><g><g><line x1="0" y1="0" x2="0" y2="378" fill="rgb(0, 0, 0)" stroke="rgb(60, 60, 60)" stroke-width="1px" opacity="0.25"></line><line x1="47.696458333333325" y1="0" x2="47.696458333333325" y2="378" fill="rgb(0, 0, 0)" stroke="rgb(60, 60, 60)" stroke-width="1px" opacity="0.25"></line><line x1="95.39291666666665" y1="0" x2="95.39291666666665" y2="378" fill="rgb(0, 0, 0)" stroke="rgb(60, 60, 60)" stroke-width="1px" opacity="0.25"></line><line x1="143.089375" y1="0" x2="143.089375" y2="378" fill="rgb(0, 0, 0)" stroke="rgb(60, 60, 60)" stroke-width="1px" opacity="0.25"></line><line x1="190.7858333333333" y1="0" x2="190.7858333333333" y2="378" fill="rgb(0, 0, 0)" stroke="rgb(60, 60, 60)" stroke-width="1px" opacity="0.25"></line><line x1="238.48229166666667" y1="0" x2="238.48229166666667" y2="378" fill="rgb(0, 0, 0)" stroke="rgb(60, 60, 60)" stroke-width="1px" opacity="0.25"></line><line x1="286.17875" y1="0" x2="286.17875" y2="378" fill="rgb(0, 0, 0)" stroke="rgb(60, 60, 60)" stroke-width="1px" opacity="0.25"></line><line x1="333.8752083333333" y1="0" x2="333.8752083333333" y2="378" fill="rgb(0, 0, 0)" stroke="rgb(60, 60, 60)" stroke-width="1px" opacity="0.25"></line><line x1="381.5716666666666" y1="0" x2="381.5716666666666" y2="378" fill="rgb(0, 0, 0)" stroke="rgb(60, 60, 60)" stroke-width="1px" opacity="0.25"></line><line x1="429.26812499999994" y1="0" x2="429.26812499999994" y2="378" fill="rgb(0, 0, 0)" stroke="rgb(60, 60, 60)" stroke-width="1px" opacity="0.25"></line><line x1="476.96458333333334" y1="0" x2="476.96458333333334" y2="378" fill="rgb(0, 0, 0)" stroke="rgb(60, 60, 60)" stroke-width="1px" opacity="0.25"></line><line x1="524.6610416666666" y1="0" x2="524.6610416666666" y2="378" fill="rgb(0, 0, 0)" stroke="rgb(60, 60, 60)" stroke-width="1px" opacity="0.25"></line><line x1="572.3575" y1="0" x2="572.3575" y2="378" fill="rgb(0, 0, 0)" stroke="rgb(60, 60, 60)" stroke-width="1px" opacity="0.25"></line></g><g><line x1="0" y1="378" x2="572.3575" y2="378" fill="rgb(0, 0, 0)" stroke="rgb(60, 60, 60)" stroke-width="1px" opacity="0.25"></line><line x1="0" y1="336" x2="572.3575" y2="336" fill="rgb(0, 0, 0)" stroke="rgb(60, 60, 60)" stroke-width="1px" opacity="0.25"></line><line x1="0" y1="294" x2="572.3575" y2="294" fill="rgb(0, 0, 0)" stroke="rgb(60, 60, 60)" stroke-width="1px" opacity="0.25"></line><line x1="0" y1="252" x2="572.3575" y2="252" fill="rgb(0, 0, 0)" stroke="rgb(60, 60, 60)" stroke-width="1px" opacity="0.25"></line><line x1="0" y1="210" x2="572.3575" y2="210" fill="rgb(0, 0, 0)" stroke="rgb(60, 60, 60)" stroke-width="1px" opacity="0.25"></line><line x1="0" y1="168" x2="572.3575" y2="168" fill="rgb(0, 0, 0)" stroke="rgb(60, 60, 60)" stroke-width="1px" opacity="0.25"></line><line x1="0" y1="126.00000000000001" x2="572.3575" y2="126.00000000000001" fill="rgb(0, 0, 0)" stroke="rgb(60, 60, 60)" stroke-width="1px" opacity="0.25"></line><line x1="0" y1="84.00000000000004" x2="572.3575" y2="84.00000000000004" fill="rgb(0, 0, 0)" stroke="rgb(60, 60, 60)" stroke-width="1px" opacity="0.25"></line><line x1="0" y1="42.00000000000002" x2="572.3575" y2="42.00000000000002" fill="rgb(0, 0, 0)" stroke="rgb(60, 60, 60)" stroke-width="1px" opacity="0.25"></line><line x1="0" y1="0" x2="572.3575" y2="0" fill="rgb(0, 0, 0)" stroke="rgb(60, 60, 60)" stroke-width="1px" opacity="0.25"></line></g></g></g><g><g><line x1="0" y1="336" x2="572.3575" y2="336" fill="rgb(0, 0, 0)" stroke="rgb(153, 153, 153)" stroke-width="1.5px"></line></g></g><g><g><line x1="47.696458333333325" y1="0" x2="47.696458333333325" y2="378" fill="rgb(0, 0, 0)" stroke="rgb(153, 153, 153)" stroke-width="1.5px"></line></g></g><g><g><g><g><g><path stroke="rgb(255, 112, 67)" stroke-width="2px" d="M71.25850874999999,-0.8893329005742077L73.404849375,29.49701023742001L75.55118999999999,55.15104784276101L77.697530625,72.7291804071469L79.84387125,88.70209244229639L81.99021187499999,103.34152043393689L84.1365525,115.21578152439567L86.28289312499999,123.26803580096428L88.42923375,130.14684202482292L90.57557437499999,136.68572649855548L92.721915,146.8066252383706L94.868255625,152.92904588544712L97.01459625,156.5341485353465L99.16093687499999,161.80592765223827L101.30727749999998,167.5502822027224L103.45361812499999,171.54212986634775L105.59995874999998,176.80309368719745L107.74629937499999,181.09188472876122L109.89264,184.27084932424083L112.038980625,187.21686114648088L114.18532125,191.1766761654672L116.33166187499998,193.7064485485503L118.47800249999999,194.83448314898416L120.62434312499998,195.9246945230586L122.77068374999999,198.7834062023705L124.917024375,201.9588385101108L127.06336499999999,202.7468777035337L129.209705625,204.7163860116813L131.35604625,205.66878500878886L133.50238687499998,209.1122243885537L135.64872749999998,213.55022481346478L137.79506812499997,214.8715307436647L139.94140875,220.0321579305685L142.087749375,223.1979383669828L144.23408999999998,224.85722589763571L146.38043062499997,226.24483509234844L148.52677125,228.5864546739278L150.673111875,231.26036484505084L152.8194525,232.7274573056022L154.96579312499998,233.90542653848408L157.11213375,234.88409180432842L159.258474375,236.22536112660728L161.40481499999999,237.78773268339054L163.55115562499998,236.6180029170323L165.69749624999997,236.71629017928896L167.843836875,238.0264969488367L169.9901775,239.41829992654257L172.136518125,241.10197757078635L174.28285874999997,242.26213251586822L176.429199375,242.97347366235294L178.57554,244.35248973024875L180.72188062499998,241.39762488635174L182.86822124999998,241.30881995935317L185.01456187499997,239.8774705825989L187.1609025,244.11822193257478L189.30724312499999,245.28072355623524L191.45358375,245.27263762018376L193.59992437499997,248.3424383727389L195.746265,249.28205768630966L197.892605625,248.20861640194693L200.03894624999998,250.50506703030845L202.185286875,249.9518910406338L204.33162749999997,250.97731123914164L206.477968125,253.46795174211167L208.62430874999998,253.86689041095914L210.770649375,254.75128840230667L212.91698999999997,255.96038731827002L215.06333062499996,256.5960423761228L217.20967124999999,257.0915852197182L219.35601187499998,256.0560658340557L221.5023525,256.787208388144L223.64869312499997,257.7327212750281L225.79503375,257.09286436196356L227.94137437499998,258.96861224625223L230.087715,258.9641561106069L232.234055625,256.6394908663764L234.38039624999996,257.3625088833054L236.52673687499998,256.21385607136966L238.67307749999998,257.3538651288371L240.819418125,258.974593437959L242.96575874999996,258.7438511832054L245.11209937499999,260.03464915654035L247.25843999999998,260.6833799022494L249.404780625,260.6878915869032L251.55112125,260.233350982835L253.69746187499996,260.1965415659965L255.84380249999998,261.5490301003111L257.990143125,260.6195195883544L260.13648374999997,259.0647435647268L262.28282437499996,258.84212367904297L264.429165,259.73945484860013L266.575505625,260.97107619227927L268.72184624999994,261.30285176147197L270.868186875,258.40315459078056L273.0145275,258.44201852026885L275.160868125,257.255571205278L277.30720875,259.15240070751895L279.45354937499997,259.471382531712L281.59988999999996,260.29063813280436L283.746230625,260.11004243130304L285.89257125,259.9535422196079L288.03891187499994,260.3739420813375L290.1852525,260.06507853520236L292.331593125,260.2454788914461L294.47793375,261.46002696938154L296.62427437499997,260.86351854197284L298.77061499999996,262.2576495801932L300.916955625,261.00655705902136L303.06329624999995,261.0451694439241L305.209636875,261.97759750547345L307.3559775,261.0995222751041L309.50231812499993,261.1835330738866L311.64865875,260.86580028618835L313.794999375,259.6203225522367L315.94134,259.69617975170183L318.08768062499996,260.1486985469745L320.23402124999996,259.59687322288073L322.380361875,260.09360572045637L324.52670249999994,259.6800301333999L326.673043125,260.3448379195175L328.81938375,259.829507741716L330.965724375,260.49310643278744L333.112065,260.4587941336822L335.25840562499997,260.46295031119536L337.40474625,260.9129359019348L339.551086875,261.1746360118716L341.69742749999995,261.8549783024507L343.843768125,261.7849050398658L345.99010875,261.19517832016885L348.1364493749999,260.9574147046563L350.28279,260.3231097686861L352.42913062499997,260.8611251013621L354.57547125,261.2789982257571L356.72181187499996,261.5536971150807L358.86815249999995,261.5084014927728L361.014493125,261.47045952054157L363.16083374999994,261.2682384608525L365.307174375,261.5658489917718L367.453515,261.353450087011L369.599855625,261.2957152767779L371.74619624999997,261.4497027065635L373.89253687499996,261.4457444945741L376.0388775,261.51524704693367L378.18521812499995,261.4381674885667L380.33155874999994,261.21959604978065L382.477899375,261.22920907830894L384.62424,261.2363087016088L386.7705806249999,261.2233576344098L388.91692125,261.27435169021163L391.06326187499997,261.22751561045567L393.2096025,260.90220338845205L395.35594312499995,261.0170014544961L397.50228374999995,261.1343760636233L399.648624375,260.7674426881541L401.79496499999993,260.8225710063022L403.941305625,260.968471006682L406.08764625,260.9646270728889L408.233986875,260.9458684001436L410.38032749999996,261.01858708107886L412.52666812499996,260.9364051630761L414.67300875,260.90021380249647L416.81934937499994,260.90027351655954L418.96568999999994,260.9169193713569L421.112030625,260.9226060514869L423.25837125,260.84318572313913L425.404711875,260.8035093428572L427.55105249999997,260.86548735391375L429.69739312499996,260.8624621253686L431.84373374999996,260.86206140646203L433.99007437499995,260.8987986238531L436.136415,260.93256685684514L438.282755625,260.90270482033725L440.42909624999993,260.88269225675003L442.575436875,260.89784405182684L444.7217775,260.99222579926777L446.868118125,260.9153638084562L449.01445874999996,260.901147377481L451.16079937499995,260.8816201043069L453.30714,260.89078455876944L455.45348062499994,260.9053930861451L457.59982124999993,260.88111589090215L459.746161875,260.8692582472335L461.8925025,260.82849302435943L464.03884312499997,260.8243239077629L466.18518374999996,260.8469790549696L468.33152437499996,260.87447349617605L470.47786499999995,260.8914758467062L472.62420562499995,260.88987374921936L474.77054625,260.88158755672157L476.916886875,260.8752539942991L479.0632274999999,260.8526783937413L481.209568125,260.84011186088316L483.35590874999997,260.82634099081275L485.50224937499996,260.80631751868196L487.64858999999996,260.7867006245438L489.79493062499995,260.7836573233118L491.94127125,260.79336698710387L494.08761187499994,260.7970298520294L496.2339525,260.798922156785L498.380293125,260.8229235503042L500.52663375,260.8227746542075L502.67297437499997,260.8199691328871L504.81931499999996,260.8196827145498L506.965655625,260.8312267525244L509.11199624999995,260.8360077657252L511.25833687499994,260.8422234128683L513.4046774999999,260.8371909183722L515.551018125,260.834929950384L517.6973587499999,260.8212291284488L519.8436993749999,260.81545445228136L521.99004,260.8087802940876L524.1363806249999,260.8070814260406L526.28272125,260.8021543054916L528.429061875,260.8007426279269L530.5754025,260.8002235661437L532.721743125,260.7985828262859L534.86808375,260.80237235678993L537.014424375,260.8019674423561L539.160765,260.80336171407856L541.307105625,260.80537487279986L543.45344625,260.80465014703043L545.599786875,260.80313634828906L547.7461275,260.80111906502356L549.8924681249999,260.80122798427175L552.0388087499999,260.79860969629425L554.185149375,260.79463045744023L556.3314899999999,260.7913291749234" style="fill: none;" fill="none"></path></g></g></g></g><g opacity="0.2"><g><g><g><path stroke="rgb(255, 112, 67)" stroke-width="2px" d="M66.9658275,-7.473690748214731L69.112168125,24.24102044105531L71.25850874999999,48.21468329429629L73.404849375,74.91116380691528L75.55118999999999,93.54833936691286L77.697530625,99.06194186210632L79.84387125,112.64268493652344L81.99021187499999,125.29033756256105L84.1365525,133.0221483707428L86.28289312499999,135.3443727493286L88.42923375,140.46400344371798L90.57557437499999,146.49345552921295L92.721915,161.98741829395294L94.868255625,162.11247539520264L97.01459625,161.9417313337326L99.16093687499999,169.71353387832642L101.30727749999998,176.16677320003512L103.45361812499999,177.52988433837893L105.59995874999998,184.69452595710757L107.74629937499999,187.52506470680237L109.89264,189.03929328918457L112.038980625,191.6358772516251L114.18532125,197.11639738082886L116.33166187499998,197.5011066198349L118.47800249999999,196.5265349149704L120.62434312499998,197.56001150608063L122.77068374999999,203.07147359848025L124.917024375,206.7219868898392L127.06336499999999,203.92893648147583L129.209705625,207.67064845561984L131.35604625,207.0973834991455L133.50238687499998,214.27738344669345L135.64872749999998,220.20722544193268L137.79506812499997,216.85348963737488L139.94140875,227.7730987071991L142.087749375,227.94660902023318L144.23408999999998,227.3461571931839L146.38043062499997,228.32624888420108L148.52677125,232.09888404607776L150.673111875,235.27123010158542L152.8194525,234.92809599637988L154.96579312499998,235.67238038778305L157.11213375,236.35208970308307L159.258474375,238.2372651100159L161.40481499999999,240.1312900185585L163.55115562499998,234.86340826749802L165.69749624999997,236.8637210726738L167.843836875,239.99180710315704L169.9901775,241.5060043931007L172.136518125,243.62749403715134L174.28285874999997,244.00236493349075L176.429199375,244.0404853820801L178.57554,246.42101383209229L180.72188062499998,236.96532762050632L182.86822124999998,241.1756125688553L185.01456187499997,237.73044651746747L187.1609025,250.4793489575386L189.30724312499999,247.02447599172595L191.45358375,245.26050871610641L193.59992437499997,252.94713950157168L195.746265,250.69148665666577L197.892605625,246.59845447540283L200.03894624999998,253.94974297285077L202.185286875,249.12212705612185L204.33162749999997,252.5154415369034L206.477968125,257.2039124965668L208.62430874999998,254.46529841423032L210.770649375,256.07788538932806L212.91698999999997,257.77403569221497L215.06333062499996,257.5495249629021L217.20967124999999,257.83489948511124L219.35601187499998,254.50278675556183L221.5023525,257.8839222192764L223.64869312499997,259.1509906053543L225.79503375,256.1330789923668L227.94137437499998,261.78223407268524L230.087715,258.9574719071388L232.234055625,253.15249300003055L234.38039624999996,258.44703590869904L236.52673687499998,254.49087685346606L238.67307749999998,259.0638787150383L240.819418125,261.4056859016419L242.96575874999996,258.397737801075L245.11209937499999,261.9708461165428L247.25843999999998,261.656476020813L249.404780625,260.694659113884L251.55112125,259.55154007673264L253.69746187499996,260.14132744073873L255.84380249999998,263.577762901783L257.990143125,259.2252538204193L260.13648374999997,256.73257952928543L262.28282437499996,258.5081938505173L264.429165,261.0854516029358L266.575505625,262.818508207798L268.72184624999994,261.8005151152611L270.868186875,254.05360883474347L273.0145275,258.50031441450125L275.160868125,255.47590023279193L277.30720875,261.9976449608803L279.45354937499997,259.94985526800156L281.59988999999996,261.51952153444296L283.746230625,259.8391488790512L285.89257125,259.7187919020653L288.03891187499994,261.0045418739319L290.1852525,259.6017832159996L292.331593125,260.51607942581177L294.47793375,263.28184908628464L296.62427437499997,259.96875590085983L298.77061499999996,264.34884613752365L300.916955625,259.12991827726364L303.06329624999995,261.1030880212784L305.209636875,263.3762395977974L307.3559775,259.78240942955017L309.50231812499993,261.3095492720604L311.64865875,260.38920110464096L313.794999375,257.7521059513092L315.94134,259.8099655508995L318.08768062499996,260.8274767398834L320.23402124999996,258.7691352367401L322.380361875,260.8387044668198L324.52670249999994,259.05966675281525L326.673043125,261.34204959869385L328.81938375,259.05651247501373L330.965724375,261.4885044693947L333.112065,260.40732568502426L335.25840562499997,260.46918457746506L337.40474625,261.587914288044L339.551086875,261.5671861767769L341.69742749999995,262.8754917383194L343.843768125,261.67979514598846L345.99010875,260.31058824062353L348.1364493749999,260.60076928138733L350.28279,259.37165236473083L352.42913062499997,261.66814810037613L354.57547125,261.90580791234976L356.72181187499996,261.96574544906616L358.86815249999995,261.4404580593109L361.014493125,261.4135465621948L363.16083374999994,260.9649068713188L365.307174375,262.01226478815084L367.453515,261.03485172986984L369.599855625,261.20911306142807L371.74619624999997,261.68068385124207L373.89253687499996,261.43980717658997L376.0388775,261.6195008754731L378.18521812499995,261.3225481510163L380.33155874999994,260.89173889160156L382.477899375,261.2436286211014L384.62424,261.2469581365586L386.7705806249999,261.2039310336113L388.91692125,261.35084277391434L391.06326187499997,261.15726149082184L393.2096025,260.4142350554466L395.35594312499995,261.18919855356216L397.50228374999995,261.31043797731405L399.648624375,260.2170426249504L401.79496499999993,260.9052634835243L403.941305625,261.18732100725174L406.08764625,260.95886117219925L408.233986875,260.9177303910256L410.38032749999996,261.12766510248184L412.52666812499996,260.81313228607183L414.67300875,260.8459267616272L416.81934937499994,260.9003630876541L418.96568999999994,260.941888153553L421.112030625,260.93113607168203L423.25837125,260.7240552306175L425.404711875,260.74399477243423L427.55105249999997,260.9584543704987L429.69739312499996,260.8579242825508L431.84373374999996,260.86146032810217L433.99007437499995,260.9539044499397L436.136415,260.98321920633316L438.282755625,260.85791176557547L440.42909624999993,260.8526734113694L442.575436875,260.920571744442L444.7217775,261.1337984204293L446.868118125,260.8000708222389L449.01445874999996,260.8798227310181L451.16079937499995,260.85232919454575L453.30714,260.90453124046326L455.45348062499994,260.92730587720877L457.59982124999993,260.8447000980377L459.746161875,260.85147178173065L461.8925025,260.7673451900482L464.03884312499997,260.8180702328682L466.18518374999996,260.8809617757797L468.33152437499996,260.9157151579857L470.47786499999995,260.9169793725014L472.62420562499995,260.8874706029892L474.77054625,260.86915826797485L476.916886875,260.8657536506653L479.0632274999999,260.81881499290466L481.209568125,260.8212620615959L483.35590874999997,260.8056846857071L485.50224937499996,260.77628231048584L487.64858999999996,260.75727528333664L489.79493062499995,260.7790923714638L491.94127125,260.8079314827919L494.08761187499994,260.8025241494179L496.2339525,260.8017606139183L498.380293125,260.8589256405831L500.52663375,260.8225513100624L502.67297437499997,260.8157608509064L504.81931499999996,260.81925308704376L506.965655625,260.8485428094864L509.11199624999995,260.8431792855263L511.25833687499994,260.8515468835831L513.4046774999999,260.8296421766281L515.551018125,260.83153849840164L517.6973587499999,260.80067789554596L519.8436993749999,260.80679243803024L521.99004,260.7987690567971L524.1363806249999,260.80453312397003L526.28272125,260.7947636246681L528.429061875,260.7986251115799L530.5754025,260.79944497346884L532.721743125,260.7961217164994L534.86808375,260.80805665254593L537.014424375,260.80136007070547L539.160765,260.80545312166214L541.307105625,260.8083946108818L543.45344625,260.8035630583763L545.599786875,260.800865650177L547.7461275,260.79809314012533L549.8924681249999,260.8013913631439L552.0388087499999,260.794682264328L554.185149375,260.78866159915924L556.3314899999999,260.7863772511483" style="fill: none;" fill="none"></path></g></g></g></g></g></g><g transform="translate(51, 378)" clip-path="url(#clip_1)"><clipPath id="clip_1"><rect width="572" height="21"></rect></clipPath><g><g><line x1="0" y1="0" x2="0" y2="5" style="visibility: inherit;" fill="rgb(0, 0, 0)" stroke="rgb(204, 204, 204)" stroke-width="1px"></line><line x1="47.696458333333325" y1="0" x2="47.696458333333325" y2="5" style="visibility: inherit;" fill="rgb(0, 0, 0)" stroke="rgb(204, 204, 204)" stroke-width="1px"></line><line x1="95.39291666666665" y1="0" x2="95.39291666666665" y2="5" style="visibility: inherit;" fill="rgb(0, 0, 0)" stroke="rgb(204, 204, 204)" stroke-width="1px"></line><line x1="143.089375" y1="0" x2="143.089375" y2="5" style="visibility: inherit;" fill="rgb(0, 0, 0)" stroke="rgb(204, 204, 204)" stroke-width="1px"></line><line x1="190.7858333333333" y1="0" x2="190.7858333333333" y2="5" style="visibility: inherit;" fill="rgb(0, 0, 0)" stroke="rgb(204, 204, 204)" stroke-width="1px"></line><line x1="238.48229166666667" y1="0" x2="238.48229166666667" y2="5" style="visibility: inherit;" fill="rgb(0, 0, 0)" stroke="rgb(204, 204, 204)" stroke-width="1px"></line><line x1="286.17875" y1="0" x2="286.17875" y2="5" style="visibility: inherit;" fill="rgb(0, 0, 0)" stroke="rgb(204, 204, 204)" stroke-width="1px"></line><line x1="333.8752083333333" y1="0" x2="333.8752083333333" y2="5" style="visibility: inherit;" fill="rgb(0, 0, 0)" stroke="rgb(204, 204, 204)" stroke-width="1px"></line><line x1="381.5716666666666" y1="0" x2="381.5716666666666" y2="5" style="visibility: inherit;" fill="rgb(0, 0, 0)" stroke="rgb(204, 204, 204)" stroke-width="1px"></line><line x1="429.26812499999994" y1="0" x2="429.26812499999994" y2="5" style="visibility: inherit;" fill="rgb(0, 0, 0)" stroke="rgb(204, 204, 204)" stroke-width="1px"></line><line x1="476.96458333333334" y1="0" x2="476.96458333333334" y2="5" style="visibility: inherit;" fill="rgb(0, 0, 0)" stroke="rgb(204, 204, 204)" stroke-width="1px"></line><line x1="524.6610416666666" y1="0" x2="524.6610416666666" y2="5" style="visibility: inherit;" fill="rgb(0, 0, 0)" stroke="rgb(204, 204, 204)" stroke-width="1px"></line><line x1="572.3575" y1="0" x2="572.3575" y2="5" style="visibility: inherit;" fill="rgb(0, 0, 0)" stroke="rgb(204, 204, 204)" stroke-width="1px"></line></g><g transform="translate(0, 8)"><text x="0" y="0" dx="0em" dy="0.95em" style="text-anchor: middle; visibility: hidden; font-family: Roboto, sans-serif; font-size: 12px; font-weight: 200;" fill="rgb(50, 49, 63)" stroke="none" stroke-width="1px">-1k</text><text x="47.696458333333325" y="0" dx="0em" dy="0.95em" style="text-anchor: middle; visibility: inherit; font-family: Roboto, sans-serif; font-size: 12px; font-weight: 200;" fill="rgb(50, 49, 63)" stroke="none" stroke-width="1px">0</text><text x="95.39291666666665" y="0" dx="0em" dy="0.95em" style="text-anchor: middle; visibility: inherit; font-family: Roboto, sans-serif; font-size: 12px; font-weight: 200;" fill="rgb(50, 49, 63)" stroke="none" stroke-width="1px">1k</text><text x="143.089375" y="0" dx="0em" dy="0.95em" style="text-anchor: middle; visibility: inherit; font-family: Roboto, sans-serif; font-size: 12px; font-weight: 200;" fill="rgb(50, 49, 63)" stroke="none" stroke-width="1px">2k</text><text x="190.7858333333333" y="0" dx="0em" dy="0.95em" style="text-anchor: middle; visibility: inherit; font-family: Roboto, sans-serif; font-size: 12px; font-weight: 200;" fill="rgb(50, 49, 63)" stroke="none" stroke-width="1px">3k</text><text x="238.48229166666667" y="0" dx="0em" dy="0.95em" style="text-anchor: middle; visibility: inherit; font-family: Roboto, sans-serif; font-size: 12px; font-weight: 200;" fill="rgb(50, 49, 63)" stroke="none" stroke-width="1px">4k</text><text x="286.17875" y="0" dx="0em" dy="0.95em" style="text-anchor: middle; visibility: inherit; font-family: Roboto, sans-serif; font-size: 12px; font-weight: 200;" fill="rgb(50, 49, 63)" stroke="none" stroke-width="1px">5k</text><text x="333.8752083333333" y="0" dx="0em" dy="0.95em" style="text-anchor: middle; visibility: inherit; font-family: Roboto, sans-serif; font-size: 12px; font-weight: 200;" fill="rgb(50, 49, 63)" stroke="none" stroke-width="1px">6k</text><text x="381.5716666666666" y="0" dx="0em" dy="0.95em" style="text-anchor: middle; visibility: inherit; font-family: Roboto, sans-serif; font-size: 12px; font-weight: 200;" fill="rgb(50, 49, 63)" stroke="none" stroke-width="1px">7k</text><text x="429.26812499999994" y="0" dx="0em" dy="0.95em" style="text-anchor: middle; visibility: inherit; font-family: Roboto, sans-serif; font-size: 12px; font-weight: 200;" fill="rgb(50, 49, 63)" stroke="none" stroke-width="1px">8k</text><text x="476.96458333333334" y="0" dx="0em" dy="0.95em" style="text-anchor: middle; visibility: inherit; font-family: Roboto, sans-serif; font-size: 12px; font-weight: 200;" fill="rgb(50, 49, 63)" stroke="none" stroke-width="1px">9k</text><text x="524.6610416666666" y="0" dx="0em" dy="0.95em" style="text-anchor: middle; visibility: inherit; font-family: Roboto, sans-serif; font-size: 12px; font-weight: 200;" fill="rgb(50, 49, 63)" stroke="none" stroke-width="1px">10k</text><text x="572.3575" y="0" dx="0em" dy="0.95em" style="text-anchor: middle; visibility: hidden; font-family: Roboto, sans-serif; font-size: 12px; font-weight: 200;" fill="rgb(50, 49, 63)" stroke="none" stroke-width="1px">11k</text></g><line x1="0" y1="0" x2="572.3575" y2="0" fill="rgb(0, 0, 0)" stroke="rgb(204, 204, 204)" stroke-width="1px"></line></g></g></g></g></svg>