<svg viewBox="0 0 623.92041015625 400" xmlns="http://www.w3.org/2000/svg"><g><g><g><g><g><line x1="50" y1="378" x2="45" y2="378" style="visibility: inherit;" fill="rgb(0, 0, 0)" stroke="rgb(204, 204, 204)" stroke-width="1px"></line><line x1="50" y1="323.99999999999994" x2="45" y2="323.99999999999994" style="visibility: inherit;" fill="rgb(0, 0, 0)" stroke="rgb(204, 204, 204)" stroke-width="1px"></line><line x1="50" y1="269.99999999999994" x2="45" y2="269.99999999999994" style="visibility: inherit;" fill="rgb(0, 0, 0)" stroke="rgb(204, 204, 204)" stroke-width="1px"></line><line x1="50" y1="216" x2="45" y2="216" style="visibility: inherit;" fill="rgb(0, 0, 0)" stroke="rgb(204, 204, 204)" stroke-width="1px"></line><line x1="50" y1="161.99999999999997" x2="45" y2="161.99999999999997" style="visibility: inherit;" fill="rgb(0, 0, 0)" stroke="rgb(204, 204, 204)" stroke-width="1px"></line><line x1="50" y1="108.00000000000007" x2="45" y2="108.00000000000007" style="visibility: inherit;" fill="rgb(0, 0, 0)" stroke="rgb(204, 204, 204)" stroke-width="1px"></line><line x1="50" y1="54.00000000000002" x2="45" y2="54.00000000000002" style="visibility: inherit;" fill="rgb(0, 0, 0)" stroke="rgb(204, 204, 204)" stroke-width="1px"></line><line x1="50" y1="0" x2="45" y2="0" style="visibility: inherit;" fill="rgb(0, 0, 0)" stroke="rgb(204, 204, 204)" stroke-width="1px"></line></g><g transform="translate(40, 0)"><text x="0" y="378" dx="0em" dy="0.3em" style="text-anchor: end; visibility: hidden; font-family: Roboto, sans-serif; font-size: 12px; font-weight: 200;" fill="rgb(50, 49, 63)" stroke="none" stroke-width="1px">0.7</text><text x="0" y="323.99999999999994" dx="0em" dy="0.3em" style="text-anchor: end; visibility: inherit; font-family: Roboto, sans-serif; font-size: 12px; font-weight: 200;" fill="rgb(50, 49, 63)" stroke="none" stroke-width="1px">0.75</text><text x="0" y="269.99999999999994" dx="0em" dy="0.3em" style="text-anchor: end; visibility: inherit; font-family: Roboto, sans-serif; font-size: 12px; font-weight: 200;" fill="rgb(50, 49, 63)" stroke="none" stroke-width="1px">0.8</text><text x="0" y="216" dx="0em" dy="0.3em" style="text-anchor: end; visibility: inherit; font-family: Roboto, sans-serif; font-size: 12px; font-weight: 200;" fill="rgb(50, 49, 63)" stroke="none" stroke-width="1px">0.85</text><text x="0" y="161.99999999999997" dx="0em" dy="0.3em" style="text-anchor: end; visibility: inherit; font-family: Roboto, sans-serif; font-size: 12px; font-weight: 200;" fill="rgb(50, 49, 63)" stroke="none" stroke-width="1px">0.9</text><text x="0" y="108.00000000000007" dx="0em" dy="0.3em" style="text-anchor: end; visibility: inherit; font-family: Roboto, sans-serif; font-size: 12px; font-weight: 200;" fill="rgb(50, 49, 63)" stroke="none" stroke-width="1px">0.95</text><text x="0" y="54.00000000000002" dx="0em" dy="0.3em" style="text-anchor: end; visibility: inherit; font-family: Roboto, sans-serif; font-size: 12px; font-weight: 200;" fill="rgb(50, 49, 63)" stroke="none" stroke-width="1px">1</text><text x="0" y="0" dx="0em" dy="0.3em" style="text-anchor: end; visibility: hidden; font-family: Roboto, sans-serif; font-size: 12px; font-weight: 200;" fill="rgb(50, 49, 63)" stroke="none" stroke-width="1px">1.05</text></g><line x1="50" y1="0" x2="50" y2="378" fill="rgb(0, 0, 0)" stroke="rgb(204, 204, 204)" stroke-width="1px"></line></g></g><g transform="translate(50, 0)" clip-path="url(#clip_0)"><clipPath id="clip_0"><rect width="573" height="377"></rect></clipPath><g><g><g><line x1="0" y1="0" x2="0" y2="378" fill="rgb(0, 0, 0)" stroke="rgb(60, 60, 60)" stroke-width="1px" opacity="0.25"></line><line x1="47.82666666666666" y1="0" x2="47.82666666666666" y2="378" fill="rgb(0, 0, 0)" stroke="rgb(60, 60, 60)" stroke-width="1px" opacity="0.25"></line><line x1="95.65333333333332" y1="0" x2="95.65333333333332" y2="378" fill="rgb(0, 0, 0)" stroke="rgb(60, 60, 60)" stroke-width="1px" opacity="0.25"></line><line x1="143.48" y1="0" x2="143.48" y2="378" fill="rgb(0, 0, 0)" stroke="rgb(60, 60, 60)" stroke-width="1px" opacity="0.25"></line><line x1="191.30666666666664" y1="0" x2="191.30666666666664" y2="378" fill="rgb(0, 0, 0)" stroke="rgb(60, 60, 60)" stroke-width="1px" opacity="0.25"></line><line x1="239.13333333333333" y1="0" x2="239.13333333333333" y2="378" fill="rgb(0, 0, 0)" stroke="rgb(60, 60, 60)" stroke-width="1px" opacity="0.25"></line><line x1="286.96" y1="0" x2="286.96" y2="378" fill="rgb(0, 0, 0)" stroke="rgb(60, 60, 60)" stroke-width="1px" opacity="0.25"></line><line x1="334.7866666666667" y1="0" x2="334.7866666666667" y2="378" fill="rgb(0, 0, 0)" stroke="rgb(60, 60, 60)" stroke-width="1px" opacity="0.25"></line><line x1="382.6133333333333" y1="0" x2="382.6133333333333" y2="378" fill="rgb(0, 0, 0)" stroke="rgb(60, 60, 60)" stroke-width="1px" opacity="0.25"></line><line x1="430.43999999999994" y1="0" x2="430.43999999999994" y2="378" fill="rgb(0, 0, 0)" stroke="rgb(60, 60, 60)" stroke-width="1px" opacity="0.25"></line><line x1="478.26666666666665" y1="0" x2="478.26666666666665" y2="378" fill="rgb(0, 0, 0)" stroke="rgb(60, 60, 60)" stroke-width="1px" opacity="0.25"></line><line x1="526.0933333333332" y1="0" x2="526.0933333333332" y2="378" fill="rgb(0, 0, 0)" stroke="rgb(60, 60, 60)" stroke-width="1px" opacity="0.25"></line><line x1="573.92" y1="0" x2="573.92" y2="378" fill="rgb(0, 0, 0)" stroke="rgb(60, 60, 60)" stroke-width="1px" opacity="0.25"></line></g><g><line x1="0" y1="378" x2="573.92" y2="378" fill="rgb(0, 0, 0)" stroke="rgb(60, 60, 60)" stroke-width="1px" opacity="0.25"></line><line x1="0" y1="323.99999999999994" x2="573.92" y2="323.99999999999994" fill="rgb(0, 0, 0)" stroke="rgb(60, 60, 60)" stroke-width="1px" opacity="0.25"></line><line x1="0" y1="269.99999999999994" x2="573.92" y2="269.99999999999994" fill="rgb(0, 0, 0)" stroke="rgb(60, 60, 60)" stroke-width="1px" opacity="0.25"></line><line x1="0" y1="216" x2="573.92" y2="216" fill="rgb(0, 0, 0)" stroke="rgb(60, 60, 60)" stroke-width="1px" opacity="0.25"></line><line x1="0" y1="161.99999999999997" x2="573.92" y2="161.99999999999997" fill="rgb(0, 0, 0)" stroke="rgb(60, 60, 60)" stroke-width="1px" opacity="0.25"></line><line x1="0" y1="108.00000000000007" x2="573.92" y2="108.00000000000007" fill="rgb(0, 0, 0)" stroke="rgb(60, 60, 60)" stroke-width="1px" opacity="0.25"></line><line x1="0" y1="54.00000000000002" x2="573.92" y2="54.00000000000002" fill="rgb(0, 0, 0)" stroke="rgb(60, 60, 60)" stroke-width="1px" opacity="0.25"></line><line x1="0" y1="0" x2="573.92" y2="0" fill="rgb(0, 0, 0)" stroke="rgb(60, 60, 60)" stroke-width="1px" opacity="0.25"></line></g></g></g><g><g><line x1="0" y1="1133.9999999999998" x2="573.92" y2="1133.9999999999998" fill="rgb(0, 0, 0)" stroke="rgb(153, 153, 153)" stroke-width="1.5px"></line></g></g><g><g><line x1="47.82666666666666" y1="0" x2="47.82666666666666" y2="378" fill="rgb(0, 0, 0)" stroke="rgb(153, 153, 153)" stroke-width="1.5px"></line></g></g><g><g><g><g><g><path stroke="rgb(255, 112, 67)" stroke-width="2px" d="M69.30084,435.8147925108504L71.69217333333333,364.5014208181176L74.08350666666666,335.5395296021773L76.47484,295.3988402176993L78.86617333333332,276.4395419713041L81.25750666666666,254.10247092377253L83.64883999999999,228.04923271285708L86.04017333333333,215.801084290428L88.43150666666665,202.54715712714287L90.82284,192.11692862439364L93.21417333333332,181.58826560029993L95.60550666666666,169.36501245867842L97.99684,180.59425381052037L100.38817333333333,167.92513553321885L102.77950666666666,181.41768787469513L105.17083999999998,175.16933311772954L107.56217333333333,167.2015772180781L109.95350666666666,162.42093817595014L112.34483999999999,168.0422623006037L114.73617333333333,162.08160371995635L117.12750666666666,155.1302096706872L119.51883999999998,150.11562469381832L121.91017333333333,145.41937419335986L124.30150666666665,145.13287449321436L126.69283999999999,139.05472440568488L129.08417333333333,135.40783453892323L131.47550666666666,135.75095072925237L133.86684,129.7722214531548L136.25817333333333,121.40083282008516L138.64950666666667,116.37799967340037L141.04083999999997,109.98929978980686L143.43217333333334,111.2185798755273L145.82350666666665,111.95614792590787L148.21483999999998,111.55493875535161L150.60617333333334,109.62671325265413L152.99750666666665,113.53227795226927L155.38884,98.62658379556896L157.7801733333333,100.18220027743843L160.17150666666666,101.95932016652945L162.56284,103.02559209994165L164.9541733333333,104.50910525998508L167.34550666666667,102.86796315597768L169.73684,96.82077789355736L172.1281733333333,101.62996673614852L174.51950666666664,100.29673004168673L176.91084,90.68525505075894L179.30217333333331,97.94865303045984L181.69350666666665,90.49419181827307L184.08483999999999,96.14651509096528L186.47617333333332,97.00665905457923L188.86750666666666,100.89774543274781L191.25884,99.85739725964876L193.6501733333333,92.48318835578894L196.04150666666666,91.43366301347338L198.43284,103.18184888535468L200.8241733333333,102.07160933121295L203.21550666666667,94.65546559872779L205.60684,91.04952935923666L207.9981733333333,88.88596761554197L210.38950666666665,87.58783056932525L212.78084,87.6526983415953L215.17217333333332,81.78536900495708L217.56350666666665,88.38997140297427L219.95483999999996,79.08759135466308L222.34617333333333,80.86505481279771L224.73750666666666,81.93153288767866L227.12883999999997,80.04016973260723L229.5201733333333,83.96785183956432L231.91150666666667,88.01196110373857L234.30283999999997,80.31342666224322L236.6941733333333,81.60055599734605L239.08550666666667,75.62283359840752L241.47683999999998,75.88091718480129L243.86817333333332,76.40980031088067L246.25950666666665,71.66463018652843L248.65084,73.880028111917L251.04217333333332,73.52176686715012L253.43350666666666,78.36931012029012L255.82483999999997,82.121586072174L258.2161733333333,81.84170164330438L260.60750666666667,82.51752098598271L262.99884,71.11051259158965L265.3901733333333,71.01630755495373L267.78150666666664,76.86603453297224L270.17284,78.68837071978335L272.5641733333333,81.46927243187004L274.9555066666667,84.82531345912201L277.34684,83.4639380754732L279.7381733333333,82.64711284528384L282.12950666666666,82.15701770717027L284.52084,70.89421062430212L286.9121733333333,71.73027637458125L289.30350666666664,69.70066582474887L291.69483999999994,71.85789949484935L294.0861733333333,71.46473969690958L296.4775066666666,70.38509381814585L298.86884,73.11230629088749L301.26017333333334,72.21738377453255L303.65150666666665,72.52418026471952L306.04283999999996,74.02172518458856L308.4341733333333,71.07553511075307L310.8255066666666,69.30782106645195L313.21683999999993,69.9346926398712L315.60817333333335,68.62331558392265L317.99950666666666,70.36773935035357L320.39083999999997,69.72689361021212L322.78217333333333,68.49863616612726L325.17350666666664,71.13668169967639L327.56483999999995,73.18922604556268L329.9561733333333,70.5760356273377L332.3475066666666,69.00812137640261L334.73884,64.69237282584156L337.13017333333335,64.63417369550491L339.52150666666665,62.91175421730293L341.91283999999996,68.62830253038179L344.3041733333333,65.30823151822912L346.69550666666663,63.31618891093748L349.08683999999994,68.49693037231923L351.47817333333336,66.91690822339157L353.86950666666667,63.43764493403501L356.26084,62.19383696042102L358.65217333333334,65.66630217625267L361.04350666666664,68.5935313057516L363.43483999999995,67.81861878345086L365.8261733333333,66.50992127007056L368.2175066666666,66.56845276204237L370.60884,65.99468017010382L373.00017333333335,65.41555810206235L375.39150666666666,65.91183486123757L377.78283999999996,66.20960091674245L380.1741733333333,64.70076055004552L382.56550666666664,64.63920633002733L384.95683999999994,63.75852379801642L387.34817333333336,66.60511427880982L389.73950666666667,65.78181856728595L392.13084,61.06909114037165L394.5221733333333,61.61645468422302L396.91350666666665,69.53862281053381L399.30483999999996,67.5419236863203L401.69617333333326,63.81265421179218L404.0875066666666,65.79384252707528L406.47884,66.13880551624523L408.8701733333333,64.65828330974728L411.26150666666666,66.30121998584832L413.65283999999997,65.83434050438751L416.0441733333333,64.47560430263258L418.43550666666664,65.34786258157956L420.82683999999995,65.02746754894777L423.2181733333333,69.05398052936863L425.6095066666667,69.78238831762117L428.00084,73.59443299057276L430.3921733333333,73.35040979434369L432.78350666666665,69.82899587660627L435.17483999999996,76.85822306459895L437.56617333333327,73.62118383875936L439.95750666666663,73.36646030325562L442.34884,68.9948761819535L444.7401733333333,69.74692570917209L447.13150666666667,69.35440542550333L449.52284,67.43139325530197L451.9141733333333,65.43383595318127L454.30550666666664,67.61030157190874L456.69683999999995,62.16618094314522L459.0881733333333,60.58720856588717L461.4795066666667,59.63982513953234L463.87084,61.602645083719395L466.2621733333333,64.46783705023162L468.65350666666666,66.18695223013898L471.04483999999997,68.90592133808349L473.4361733333333,67.16230280285016L475.8275066666666,66.11613168171009L478.21884,61.269679009026035L480.6101733333333,64.2680574054157L483.0015066666666,63.535834443249506L485.39284,60.565250665949634L487.7841733333333,59.62665039956985L490.1755066666666,61.59474023974196L492.56683999999996,64.46309414384518L494.9581733333333,63.652856486307044L497.3495066666666,64.01046389178418L499.74084,60.006278335070554L502.1321733333333,58.44751700104245L504.5235066666666,60.88726020062543L506.91483999999997,64.0386061203753L509.3061733333333,68.46066367222521L511.6975066666666,66.89514820333514L514.08884,66.79958892200119L516.4801733333334,65.8985033532007L518.8715066666666,69.57660201192047L521.26284,67.79956972003073L523.6541733333332,69.02974183201839L526.0455066666666,68.92409509921106L528.43684,67.17320705952659L530.8281733333333,64.43517423571592L533.2195066666667,66.16735454142956L535.6108399999999,68.05041272485775L538.0021733333333,68.33649763491475L540.3935066666667,65.97689858094876L542.7848399999999,61.18613914856931L545.1761733333333,60.84293348914152L547.5675066666666,66.54326009348492L549.95884,68.27595605609089L552.3501733333333,66.78432363365458L554.7415066666666,66.7330941801927L557.13284,66.70235650811561" style="fill: none;" fill="none"></path></g></g></g></g><g opacity="0.2"><g><g><g><path stroke="rgb(255, 112, 67)" stroke-width="2px" d="M64.51817333333332,380.95312499999994L66.90950666666666,359.85937499999994L69.30084,454.82476615905756L71.69217333333333,258.60937499999994L74.08350666666666,292.359375L76.47484,235.40624999999997L78.86617333333332,248.0625L81.25750666666666,220.64062499999997L83.64883999999999,189L86.04017333333333,197.4375L88.43150666666665,182.671875L90.82284,176.4742341041565L93.21417333333332,165.796875L95.60550666666666,151.03125000000003L97.99684,197.4375L100.38817333333333,148.921875L102.77950666666666,201.65624999999997L105.17083999999998,165.796875L107.56217333333333,155.25L109.95350666666666,155.25L112.34483999999999,176.4742341041565L114.73617333333333,153.140625L117.12750666666666,144.703125L119.51883999999998,142.59375000000003L121.91017333333333,138.375L124.30150666666665,144.703125L126.69283999999999,129.9375L129.08417333333333,129.9375L131.47550666666666,136.26562500000003L133.86684,120.8041276931763L136.25817333333333,108.84375000000001L138.64950666666667,108.84375000000001L141.04083999999997,100.40625000000004L143.43217333333334,113.06250000000001L145.82350666666665,113.06250000000001L148.21483999999998,110.95312500000004L150.60617333333334,106.73437500000003L152.99750666666665,119.390625L155.38884,76.26804256439213L157.7801733333333,102.51562500000003L160.17150666666666,104.625L162.56284,104.625L164.9541733333333,106.73437500000003L167.34550666666667,100.40625000000004L169.73684,87.75000000000003L172.1281733333333,108.84375000000001L174.51950666666664,98.29687500000001L176.91084,76.26804256439213L179.30217333333331,108.84375000000001L181.69350666666665,79.31250000000001L184.08483999999999,104.625L186.47617333333332,98.29687500000001L188.86750666666666,106.73437500000003L191.25884,98.29687500000001L193.6501733333333,81.42187500000004L196.04150666666666,89.859375L198.43284,120.8041276931763L200.8241733333333,100.40625000000004L203.21550666666667,83.53125000000001L205.60684,85.64062500000004L207.9981733333333,85.64062500000004L210.38950666666665,85.64062500000004L212.78084,87.75000000000003L215.17217333333332,72.98437500000003L217.56350666666665,98.29687500000001L219.95483999999996,65.13402128219606L222.34617333333333,83.53125000000001L224.73750666666666,83.53125000000001L227.12883999999997,77.20312500000003L229.5201733333333,89.859375L231.91150666666667,94.07812500000001L234.30283999999997,68.76562500000001L236.6941733333333,83.53125000000001L239.08550666666667,66.65625000000004L241.47683999999998,76.26804256439213L243.86817333333332,77.20312500000003L246.25950666666665,64.54687500000001L248.65084,77.20312500000003L251.04217333333332,72.98437500000003L253.43350666666666,85.64062500000004L255.82483999999997,87.75000000000003L258.2161733333333,81.42187500000004L260.60750666666667,83.53125000000001L262.99884,54.00000000000002L265.3901733333333,70.87500000000004L267.78150666666664,85.64062500000004L270.17284,81.42187500000004L272.5641733333333,85.64062500000004L274.9555066666667,89.859375L277.34684,81.42187500000004L279.7381733333333,81.42187500000004L282.12950666666666,81.42187500000004L284.52084,54.00000000000002L286.9121733333333,72.98437500000003L289.30350666666664,66.65625000000004L291.69483999999994,75.09375000000004L294.0861733333333,70.87500000000004L296.4775066666666,68.76562500000001L298.86884,77.20312500000003L301.26017333333334,70.87500000000004L303.65150666666665,72.98437500000003L306.04283999999996,76.26804256439213L308.4341733333333,66.65625000000004L310.8255066666666,66.65625000000004L313.21683999999993,70.87500000000004L315.60817333333335,66.65625000000004L317.99950666666666,72.98437500000003L320.39083999999997,68.76562500000001L322.78217333333333,66.65625000000004L325.17350666666664,75.09375000000004L327.56483999999995,76.26804256439213L329.9561733333333,66.65625000000004L332.3475066666666,66.65625000000004L334.73884,58.21875000000002L337.13017333333335,64.54687500000001L339.52150666666665,60.32812500000005L341.91283999999996,77.20312500000003L344.3041733333333,60.32812500000005L346.69550666666663,60.32812500000005L349.08683999999994,76.26804256439213L351.47817333333336,64.54687500000001L353.86950666666667,58.21875000000002L356.26084,60.32812500000005L358.65217333333334,70.87500000000004L361.04350666666664,72.98437500000003L363.43483999999995,66.65625000000004L365.8261733333333,64.54687500000001L368.2175066666666,66.65625000000004L370.60884,65.13402128219606L373.00017333333335,64.54687500000001L375.39150666666666,66.65625000000004L377.78283999999996,66.65625000000004L380.1741733333333,62.43750000000003L382.56550666666664,64.54687500000001L384.95683999999994,62.43750000000003L387.34817333333336,70.87500000000004L389.73950666666667,64.54687500000001L392.13084,54.00000000000002L394.5221733333333,62.43750000000003L396.91350666666665,81.42187500000004L399.30483999999996,64.54687500000001L401.69617333333326,58.21875000000002L404.0875066666666,68.76562500000001L406.47884,66.65625000000004L408.8701733333333,62.43750000000003L411.26150666666666,68.76562500000001L413.65283999999997,65.13402128219606L416.0441733333333,62.43750000000003L418.43550666666664,66.65625000000004L420.82683999999995,64.54687500000001L423.2181733333333,75.09375000000004L425.6095066666667,70.87500000000004L428.00084,79.31250000000001L430.3921733333333,72.98437500000003L432.78350666666665,64.54687500000001L435.17483999999996,87.40206384658818L437.56617333333327,68.76562500000001L439.95750666666663,72.98437500000003L442.34884,62.43750000000003L444.7401733333333,70.87500000000004L447.13150666666667,68.76562500000001L449.52284,64.54687500000001L451.9141733333333,62.43750000000003L454.30550666666664,70.87500000000004L456.69683999999995,54.00000000000002L459.0881733333333,58.21875000000002L461.4795066666667,58.21875000000002L463.87084,64.54687500000001L466.2621733333333,68.76562500000001L468.65350666666666,68.76562500000001L471.04483999999997,72.98437500000003L473.4361733333333,64.54687500000001L475.8275066666666,64.54687500000001L478.21884,54.00000000000002L480.6101733333333,68.76562500000001L483.0015066666666,62.43750000000003L485.39284,56.10937500000004L487.7841733333333,58.21875000000002L490.1755066666666,64.54687500000001L492.56683999999996,68.76562500000001L494.9581733333333,62.43750000000003L497.3495066666666,64.54687500000001L499.74084,54.00000000000002L502.1321733333333,56.10937500000004L504.5235066666666,64.54687500000001L506.91483999999997,68.76562500000001L509.3061733333333,75.09375000000004L511.6975066666666,64.54687500000001L514.08884,66.65625000000004L516.4801733333334,64.54687500000001L518.8715066666666,75.09375000000004L521.26284,65.13402128219606L523.6541733333332,70.87500000000004L526.0455066666666,68.76562500000001L528.43684,64.54687500000001L530.8281733333333,60.32812500000005L533.2195066666667,68.76562500000001L535.6108399999999,70.87500000000004L538.0021733333333,68.76562500000001L540.3935066666667,62.43750000000003L542.7848399999999,54.00000000000002L545.1761733333333,60.32812500000005L547.5675066666666,75.09375000000004L549.95884,70.87500000000004L552.3501733333333,64.54687500000001L554.7415066666666,66.65625000000004L557.13284,66.65625000000004" style="fill: none;" fill="none"></path></g></g></g></g></g></g><g transform="translate(50, 378)" clip-path="url(#clip_1)"><clipPath id="clip_1"><rect width="573" height="21"></rect></clipPath><g><g><line x1="0" y1="0" x2="0" y2="5" style="visibility: inherit;" fill="rgb(0, 0, 0)" stroke="rgb(204, 204, 204)" stroke-width="1px"></line><line x1="47.82666666666666" y1="0" x2="47.82666666666666" y2="5" style="visibility: inherit;" fill="rgb(0, 0, 0)" stroke="rgb(204, 204, 204)" stroke-width="1px"></line><line x1="95.65333333333332" y1="0" x2="95.65333333333332" y2="5" style="visibility: inherit;" fill="rgb(0, 0, 0)" stroke="rgb(204, 204, 204)" stroke-width="1px"></line><line x1="143.48" y1="0" x2="143.48" y2="5" style="visibility: inherit;" fill="rgb(0, 0, 0)" stroke="rgb(204, 204, 204)" stroke-width="1px"></line><line x1="191.30666666666664" y1="0" x2="191.30666666666664" y2="5" style="visibility: inherit;" fill="rgb(0, 0, 0)" stroke="rgb(204, 204, 204)" stroke-width="1px"></line><line x1="239.13333333333333" y1="0" x2="239.13333333333333" y2="5" style="visibility: inherit;" fill="rgb(0, 0, 0)" stroke="rgb(204, 204, 204)" stroke-width="1px"></line><line x1="286.96" y1="0" x2="286.96" y2="5" style="visibility: inherit;" fill="rgb(0, 0, 0)" stroke="rgb(204, 204, 204)" stroke-width="1px"></line><line x1="334.7866666666667" y1="0" x2="334.7866666666667" y2="5" style="visibility: inherit;" fill="rgb(0, 0, 0)" stroke="rgb(204, 204, 204)" stroke-width="1px"></line><line x1="382.6133333333333" y1="0" x2="382.6133333333333" y2="5" style="visibility: inherit;" fill="rgb(0, 0, 0)" stroke="rgb(204, 204, 204)" stroke-width="1px"></line><line x1="430.43999999999994" y1="0" x2="430.43999999999994" y2="5" style="visibility: inherit;" fill="rgb(0, 0, 0)" stroke="rgb(204, 204, 204)" stroke-width="1px"></line><line x1="478.26666666666665" y1="0" x2="478.26666666666665" y2="5" style="visibility: inherit;" fill="rgb(0, 0, 0)" stroke="rgb(204, 204, 204)" stroke-width="1px"></line><line x1="526.0933333333332" y1="0" x2="526.0933333333332" y2="5" style="visibility: inherit;" fill="rgb(0, 0, 0)" stroke="rgb(204, 204, 204)" stroke-width="1px"></line><line x1="573.92" y1="0" x2="573.92" y2="5" style="visibility: inherit;" fill="rgb(0, 0, 0)" stroke="rgb(204, 204, 204)" stroke-width="1px"></line></g><g transform="translate(0, 8)"><text x="0" y="0" dx="0em" dy="0.95em" style="text-anchor: middle; visibility: hidden; font-family: Roboto, sans-serif; font-size: 12px; font-weight: 200;" fill="rgb(50, 49, 63)" stroke="none" stroke-width="1px">-1k</text><text x="47.82666666666666" y="0" dx="0em" dy="0.95em" style="text-anchor: middle; visibility: inherit; font-family: Roboto, sans-serif; font-size: 12px; font-weight: 200;" fill="rgb(50, 49, 63)" stroke="none" stroke-width="1px">0</text><text x="95.65333333333332" y="0" dx="0em" dy="0.95em" style="text-anchor: middle; visibility: inherit; font-family: Roboto, sans-serif; font-size: 12px; font-weight: 200;" fill="rgb(50, 49, 63)" stroke="none" stroke-width="1px">1k</text><text x="143.48" y="0" dx="0em" dy="0.95em" style="text-anchor: middle; visibility: inherit; font-family: Roboto, sans-serif; font-size: 12px; font-weight: 200;" fill="rgb(50, 49, 63)" stroke="none" stroke-width="1px">2k</text><text x="191.30666666666664" y="0" dx="0em" dy="0.95em" style="text-anchor: middle; visibility: inherit; font-family: Roboto, sans-serif; font-size: 12px; font-weight: 200;" fill="rgb(50, 49, 63)" stroke="none" stroke-width="1px">3k</text><text x="239.13333333333333" y="0" dx="0em" dy="0.95em" style="text-anchor: middle; visibility: inherit; font-family: Roboto, sans-serif; font-size: 12px; font-weight: 200;" fill="rgb(50, 49, 63)" stroke="none" stroke-width="1px">4k</text><text x="286.96" y="0" dx="0em" dy="0.95em" style="text-anchor: middle; visibility: inherit; font-family: Roboto, sans-serif; font-size: 12px; font-weight: 200;" fill="rgb(50, 49, 63)" stroke="none" stroke-width="1px">5k</text><text x="334.7866666666667" y="0" dx="0em" dy="0.95em" style="text-anchor: middle; visibility: inherit; font-family: Roboto, sans-serif; font-size: 12px; font-weight: 200;" fill="rgb(50, 49, 63)" stroke="none" stroke-width="1px">6k</text><text x="382.6133333333333" y="0" dx="0em" dy="0.95em" style="text-anchor: middle; visibility: inherit; font-family: Roboto, sans-serif; font-size: 12px; font-weight: 200;" fill="rgb(50, 49, 63)" stroke="none" stroke-width="1px">7k</text><text x="430.43999999999994" y="0" dx="0em" dy="0.95em" style="text-anchor: middle; visibility: inherit; font-family: Roboto, sans-serif; font-size: 12px; font-weight: 200;" fill="rgb(50, 49, 63)" stroke="none" stroke-width="1px">8k</text><text x="478.26666666666665" y="0" dx="0em" dy="0.95em" style="text-anchor: middle; visibility: inherit; font-family: Roboto, sans-serif; font-size: 12px; font-weight: 200;" fill="rgb(50, 49, 63)" stroke="none" stroke-width="1px">9k</text><text x="526.0933333333332" y="0" dx="0em" dy="0.95em" style="text-anchor: middle; visibility: inherit; font-family: Roboto, sans-serif; font-size: 12px; font-weight: 200;" fill="rgb(50, 49, 63)" stroke="none" stroke-width="1px">10k</text><text x="573.92" y="0" dx="0em" dy="0.95em" style="text-anchor: middle; visibility: hidden; font-family: Roboto, sans-serif; font-size: 12px; font-weight: 200;" fill="rgb(50, 49, 63)" stroke="none" stroke-width="1px">11k</text></g><line x1="0" y1="0" x2="573.92" y2="0" fill="rgb(0, 0, 0)" stroke="rgb(204, 204, 204)" stroke-width="1px"></line></g></g></g></g></svg>