<svg viewBox="0 0 623.92041015625 400" xmlns="http://www.w3.org/2000/svg"><g><g><g><g><g><line x1="50" y1="378" x2="45" y2="378" style="visibility: inherit;" fill="rgb(0, 0, 0)" stroke="rgb(204, 204, 204)" stroke-width="1px"></line><line x1="50" y1="336" x2="45" y2="336" style="visibility: inherit;" fill="rgb(0, 0, 0)" stroke="rgb(204, 204, 204)" stroke-width="1px"></line><line x1="50" y1="294" x2="45" y2="294" style="visibility: inherit;" fill="rgb(0, 0, 0)" stroke="rgb(204, 204, 204)" stroke-width="1px"></line><line x1="50" y1="252" x2="45" y2="252" style="visibility: inherit;" fill="rgb(0, 0, 0)" stroke="rgb(204, 204, 204)" stroke-width="1px"></line><line x1="50" y1="210" x2="45" y2="210" style="visibility: inherit;" fill="rgb(0, 0, 0)" stroke="rgb(204, 204, 204)" stroke-width="1px"></line><line x1="50" y1="168" x2="45" y2="168" style="visibility: inherit;" fill="rgb(0, 0, 0)" stroke="rgb(204, 204, 204)" stroke-width="1px"></line><line x1="50" y1="126.00000000000001" x2="45" y2="126.00000000000001" style="visibility: inherit;" fill="rgb(0, 0, 0)" stroke="rgb(204, 204, 204)" stroke-width="1px"></line><line x1="50" y1="84.00000000000004" x2="45" y2="84.00000000000004" style="visibility: inherit;" fill="rgb(0, 0, 0)" stroke="rgb(204, 204, 204)" stroke-width="1px"></line><line x1="50" y1="42.00000000000002" x2="45" y2="42.00000000000002" style="visibility: inherit;" fill="rgb(0, 0, 0)" stroke="rgb(204, 204, 204)" stroke-width="1px"></line><line x1="50" y1="0" x2="45" y2="0" style="visibility: inherit;" fill="rgb(0, 0, 0)" stroke="rgb(204, 204, 204)" stroke-width="1px"></line></g><g transform="translate(40, 0)"><text x="0" y="378" dx="0em" dy="0.3em" style="text-anchor: end; visibility: hidden; font-family: Roboto, sans-serif; font-size: 12px; font-weight: 200;" fill="rgb(50, 49, 63)" stroke="none" stroke-width="1px">-0.1</text><text x="0" y="336" dx="0em" dy="0.3em" style="text-anchor: end; visibility: inherit; font-family: Roboto, sans-serif; font-size: 12px; font-weight: 200;" fill="rgb(50, 49, 63)" stroke="none" stroke-width="1px">0</text><text x="0" y="294" dx="0em" dy="0.3em" style="text-anchor: end; visibility: inherit; font-family: Roboto, sans-serif; font-size: 12px; font-weight: 200;" fill="rgb(50, 49, 63)" stroke="none" stroke-width="1px">0.1</text><text x="0" y="252" dx="0em" dy="0.3em" style="text-anchor: end; visibility: inherit; font-family: Roboto, sans-serif; font-size: 12px; font-weight: 200;" fill="rgb(50, 49, 63)" stroke="none" stroke-width="1px">0.2</text><text x="0" y="210" dx="0em" dy="0.3em" style="text-anchor: end; visibility: inherit; font-family: Roboto, sans-serif; font-size: 12px; font-weight: 200;" fill="rgb(50, 49, 63)" stroke="none" stroke-width="1px">0.3</text><text x="0" y="168" dx="0em" dy="0.3em" style="text-anchor: end; visibility: inherit; font-family: Roboto, sans-serif; font-size: 12px; font-weight: 200;" fill="rgb(50, 49, 63)" stroke="none" stroke-width="1px">0.4</text><text x="0" y="126.00000000000001" dx="0em" dy="0.3em" style="text-anchor: end; visibility: inherit; font-family: Roboto, sans-serif; font-size: 12px; font-weight: 200;" fill="rgb(50, 49, 63)" stroke="none" stroke-width="1px">0.5</text><text x="0" y="84.00000000000004" dx="0em" dy="0.3em" style="text-anchor: end; visibility: inherit; font-family: Roboto, sans-serif; font-size: 12px; font-weight: 200;" fill="rgb(50, 49, 63)" stroke="none" stroke-width="1px">0.6</text><text x="0" y="42.00000000000002" dx="0em" dy="0.3em" style="text-anchor: end; visibility: inherit; font-family: Roboto, sans-serif; font-size: 12px; font-weight: 200;" fill="rgb(50, 49, 63)" stroke="none" stroke-width="1px">0.7</text><text x="0" y="0" dx="0em" dy="0.3em" style="text-anchor: end; visibility: hidden; font-family: Roboto, sans-serif; font-size: 12px; font-weight: 200;" fill="rgb(50, 49, 63)" stroke="none" stroke-width="1px">0.8</text></g><line x1="50" y1="0" x2="50" y2="378" fill="rgb(0, 0, 0)" stroke="rgb(204, 204, 204)" stroke-width="1px"></line></g></g><g transform="translate(50, 0)" clip-path="url(#clip_0)"><clipPath id="clip_0"><rect width="573" height="377"></rect></clipPath><g><g><g><line x1="0" y1="0" x2="0" y2="378" fill="rgb(0, 0, 0)" stroke="rgb(60, 60, 60)" stroke-width="1px" opacity="0.25"></line><line x1="47.82666666666666" y1="0" x2="47.82666666666666" y2="378" fill="rgb(0, 0, 0)" stroke="rgb(60, 60, 60)" stroke-width="1px" opacity="0.25"></line><line x1="95.65333333333332" y1="0" x2="95.65333333333332" y2="378" fill="rgb(0, 0, 0)" stroke="rgb(60, 60, 60)" stroke-width="1px" opacity="0.25"></line><line x1="143.48" y1="0" x2="143.48" y2="378" fill="rgb(0, 0, 0)" stroke="rgb(60, 60, 60)" stroke-width="1px" opacity="0.25"></line><line x1="191.30666666666664" y1="0" x2="191.30666666666664" y2="378" fill="rgb(0, 0, 0)" stroke="rgb(60, 60, 60)" stroke-width="1px" opacity="0.25"></line><line x1="239.13333333333333" y1="0" x2="239.13333333333333" y2="378" fill="rgb(0, 0, 0)" stroke="rgb(60, 60, 60)" stroke-width="1px" opacity="0.25"></line><line x1="286.96" y1="0" x2="286.96" y2="378" fill="rgb(0, 0, 0)" stroke="rgb(60, 60, 60)" stroke-width="1px" opacity="0.25"></line><line x1="334.7866666666667" y1="0" x2="334.7866666666667" y2="378" fill="rgb(0, 0, 0)" stroke="rgb(60, 60, 60)" stroke-width="1px" opacity="0.25"></line><line x1="382.6133333333333" y1="0" x2="382.6133333333333" y2="378" fill="rgb(0, 0, 0)" stroke="rgb(60, 60, 60)" stroke-width="1px" opacity="0.25"></line><line x1="430.43999999999994" y1="0" x2="430.43999999999994" y2="378" fill="rgb(0, 0, 0)" stroke="rgb(60, 60, 60)" stroke-width="1px" opacity="0.25"></line><line x1="478.26666666666665" y1="0" x2="478.26666666666665" y2="378" fill="rgb(0, 0, 0)" stroke="rgb(60, 60, 60)" stroke-width="1px" opacity="0.25"></line><line x1="526.0933333333332" y1="0" x2="526.0933333333332" y2="378" fill="rgb(0, 0, 0)" stroke="rgb(60, 60, 60)" stroke-width="1px" opacity="0.25"></line><line x1="573.92" y1="0" x2="573.92" y2="378" fill="rgb(0, 0, 0)" stroke="rgb(60, 60, 60)" stroke-width="1px" opacity="0.25"></line></g><g><line x1="0" y1="378" x2="573.92" y2="378" fill="rgb(0, 0, 0)" stroke="rgb(60, 60, 60)" stroke-width="1px" opacity="0.25"></line><line x1="0" y1="336" x2="573.92" y2="336" fill="rgb(0, 0, 0)" stroke="rgb(60, 60, 60)" stroke-width="1px" opacity="0.25"></line><line x1="0" y1="294" x2="573.92" y2="294" fill="rgb(0, 0, 0)" stroke="rgb(60, 60, 60)" stroke-width="1px" opacity="0.25"></line><line x1="0" y1="252" x2="573.92" y2="252" fill="rgb(0, 0, 0)" stroke="rgb(60, 60, 60)" stroke-width="1px" opacity="0.25"></line><line x1="0" y1="210" x2="573.92" y2="210" fill="rgb(0, 0, 0)" stroke="rgb(60, 60, 60)" stroke-width="1px" opacity="0.25"></line><line x1="0" y1="168" x2="573.92" y2="168" fill="rgb(0, 0, 0)" stroke="rgb(60, 60, 60)" stroke-width="1px" opacity="0.25"></line><line x1="0" y1="126.00000000000001" x2="573.92" y2="126.00000000000001" fill="rgb(0, 0, 0)" stroke="rgb(60, 60, 60)" stroke-width="1px" opacity="0.25"></line><line x1="0" y1="84.00000000000004" x2="573.92" y2="84.00000000000004" fill="rgb(0, 0, 0)" stroke="rgb(60, 60, 60)" stroke-width="1px" opacity="0.25"></line><line x1="0" y1="42.00000000000002" x2="573.92" y2="42.00000000000002" fill="rgb(0, 0, 0)" stroke="rgb(60, 60, 60)" stroke-width="1px" opacity="0.25"></line><line x1="0" y1="0" x2="573.92" y2="0" fill="rgb(0, 0, 0)" stroke="rgb(60, 60, 60)" stroke-width="1px" opacity="0.25"></line></g></g></g><g><g><line x1="0" y1="336" x2="573.92" y2="336" fill="rgb(0, 0, 0)" stroke="rgb(153, 153, 153)" stroke-width="1.5px"></line></g></g><g><g><line x1="47.82666666666666" y1="0" x2="47.82666666666666" y2="378" fill="rgb(0, 0, 0)" stroke="rgb(153, 153, 153)" stroke-width="1.5px"></line></g></g><g><g><g><g><g><path stroke="rgb(255, 112, 67)" stroke-width="2px" d="M71.69217333333333,-15.242149680313137L74.08350666666666,20.341167594299385L76.47484,57.285728218730306L78.86617333333332,82.39148465361286L81.25750666666666,101.34244594605224L83.64883999999999,120.90983635596766L86.04017333333333,134.91032218092968L88.43150666666665,147.63924144405996L90.82284,165.11099569054912L93.21417333333332,170.09098105571002L95.60550666666666,182.514038563816L97.99684,177.50766638877778L100.38817333333333,190.4205836227981L102.77950666666666,185.58180133451347L105.17083999999998,191.34545639677873L107.56217333333333,196.7763579485496L109.95350666666666,204.84403430732615L112.34483999999999,209.63699666456807L114.73617333333333,213.0793897298515L117.12750666666666,218.34502547609736L119.51883999999998,224.1164436798699L121.91017333333333,226.72993678316368L124.30150666666665,227.26382976528203L126.69283999999999,233.42998635265857L129.08417333333333,240.42582541180687L131.47550666666666,245.08724037955474L133.86684,246.19371682444216L136.25817333333333,251.8507293457543L138.64950666666667,257.0735167455744L141.04083999999997,258.74311610784997L143.43217333333334,258.8820680901887L145.82350666666665,259.7187909684623L148.21483999999998,261.4236384401207L150.60617333333334,264.10772229328677L152.99750666666665,263.55866139578205L155.38884,272.5749794817246L157.7801733333333,273.16442051988207L160.17150666666666,270.9999550786482L162.56284,271.2933950309144L164.9541733333333,270.7490444829501L167.34550666666667,273.08225137297836L169.73684,277.04317120497075L172.1281733333333,275.1796327339634L174.51950666666664,277.78676430625325L176.91084,291.7909916892354L179.30217333333331,280.33639306155345L181.69350666666665,288.6265827317716L184.08483999999999,280.3173467814714L186.47617333333332,280.7701831877107L188.86750666666666,278.872870935194L191.25884,279.2769529659702L193.6501733333333,286.91475168699964L196.04150666666666,289.3269135346112L198.43284,283.41435552776437L200.8241733333333,281.88111499035705L203.21550666666667,284.61837177922934L205.60684,287.0249998536742L207.9981733333333,289.2120344261549L210.38950666666665,293.4743898642195L212.78084,296.55014860225515L215.17217333333332,301.462623307662L217.56350666666665,296.5875730333071L219.95483999999996,302.98169579013233L222.34617333333333,299.28344154300714L224.73750666666666,299.16547583307283L227.12883999999997,299.3974958107797L229.5201733333333,299.017447331305L231.91150666666667,297.83172192499376L234.30283999999997,303.57351974442804L236.6941733333333,304.34354930994033L239.08550666666667,307.985505276186L241.47683999999998,310.0277256091015L243.86817333333332,307.6381077480064L246.25950666666665,310.50927785108956L248.65084,308.3332862917809L251.04217333333332,308.9966823079722L253.43350666666666,304.9279802929483L255.82483999999997,298.06743563956746L258.2161733333333,300.98249224273405L260.60750666666667,302.0539272513869L262.99884,311.2037490658094L265.3901733333333,309.65488375736055L267.78150666666664,303.42061254687775L270.17284,301.50347898785867L272.5641733333333,301.00357713928577L274.9555066666667,298.65935985225894L277.34684,301.50768612610375L279.7381733333333,301.7305814551537L282.12950666666666,302.33483676476624L284.52084,312.3242270252904L286.9121733333333,311.43937264095547L289.30350666666664,315.1358975959468L291.69483999999994,314.38147714094214L294.0861733333333,313.7716366908305L296.4775066666666,315.1377275861116L298.86884,312.82869027118755L301.26017333333334,310.5844594243817L303.65150666666665,311.2434683205874L306.04283999999996,306.2341513253565L308.4341733333333,311.20048257215706L310.8255066666666,314.1435177117818L313.21683999999993,313.31740050853693L315.60817333333335,315.3405599495256L317.99950666666666,311.32037032249474L320.39083999999997,312.8611123717004L322.78217333333333,314.54413888193216L325.17350666666664,314.078138925654L327.56483999999995,307.44563007236854L329.9561733333333,312.5936653189739L332.3475066666666,317.14107146101475L334.73884,319.5070858105259L337.13017333333335,318.6455754759453L339.52150666666665,318.31514154210936L341.91283999999996,312.9133654733613L344.3041733333333,317.5411058068344L346.69550666666663,319.44428980350904L349.08683999999994,321.21474262476215L351.47817333333336,319.56541437149195L353.86950666666667,321.9454407080421L356.26084,319.7805948426967L358.65217333333334,319.1555361909059L361.04350666666664,316.96392612829135L363.43483999999995,316.9216435919662L365.8261733333333,318.1260493797338L368.2175066666666,317.35095538510535L370.60884,319.9057266373256L373.00017333333335,319.56328392975445L375.39150666666666,320.1353559193189L377.78283999999996,317.86300249082893L380.1741733333333,320.03973936249645L382.56550666666664,320.82162281399866L384.95683999999994,320.9972266824597L387.34817333333336,316.81953411528787L389.73950666666667,315.6941461576779L392.13084,322.36851068072076L394.5221733333333,322.56388536532256L396.91350666666665,316.65278211497986L399.30483999999996,316.51991241731474L401.69617333333326,321.1231497082605L404.0875066666666,320.2885563703474L406.47884,317.9836129207668L408.8701733333333,321.1520303314482L411.26150666666666,319.82232018861504L413.65283999999997,319.8598081979354L416.0441733333333,322.6037974961519L418.43550666666664,322.42670120048047L420.82683999999995,321.8843663945646L423.2181733333333,320.00635112016505L425.6095066666667,313.8570523779935L428.00084,314.34244831927697L430.3921733333333,314.6135160298829L432.78350666666665,318.157541520696L435.17483999999996,317.5824759050018L437.56617333333327,317.5915880825404L439.95750666666663,316.65147550262714L442.34884,318.7914889535767L444.7401733333333,318.4336922992147L447.13150666666667,318.6534635024594L449.52284,319.39656956179897L451.9141733333333,319.9329515825746L454.30550666666664,318.5728992182635L456.69683999999995,320.04198247543707L459.0881733333333,321.6041953614457L461.4795066666667,323.37650986916447L463.87084,323.8165206545986L466.2621733333333,320.8599372049807L468.65350666666666,320.1911133969211L471.04483999999997,316.34302585389514L473.4361733333333,318.43202077189864L475.8275066666666,318.4119331350313L478.21884,319.97781115236205L480.6101733333333,319.06745103873203L483.0015066666666,321.0742079131448L485.39284,323.31107867137456L487.7841733333333,324.2043220482818L490.1755066666666,321.6778636206717L492.56683999999996,319.733090646835L494.9581733333333,321.46822220848316L497.3495066666666,321.4289744542021L499.74084,323.53140997862687L502.1321733333333,324.2024627743713L504.5235066666666,322.9049136828513L506.91483999999997,321.8263304228265L509.3061733333333,321.0671591695952L511.6975066666666,320.4838318131451L514.08884,321.48352896583583L516.4801733333334,319.041673418358L518.8715066666666,316.5017036297769L521.26284,317.512342935732L523.6541733333332,317.94178154822055L526.0455066666666,317.2360650644056L528.43684,319.78637563260503L530.8281733333333,321.8786520872838L533.2195066666667,317.15674570288223L535.6108399999999,315.9296374624131L538.0021733333333,316.2869706454967L540.3935066666667,318.0685027601179L542.7848399999999,323.34059373658044L545.1761733333333,322.7844721086093L547.5675066666666,318.09971385641506L549.95884,318.13731007244354L552.3501733333333,319.2416173605094L554.7415066666666,318.62933527159515L557.13284,318.0597330017556" style="fill: none;" fill="none"></path></g></g></g></g><g opacity="0.2"><g><g><g><path stroke="rgb(255, 112, 67)" stroke-width="2px" d="M69.30084,-24.905556678771962L71.69217333333333,56.11692523956301L74.08350666666666,73.3934054374695L76.47484,112.50151848793033L78.86617333333332,119.96814465522769L81.25750666666666,129.73176097869876L83.64883999999999,150.23792123794556L86.04017333333333,155.9011766910553L88.43150666666665,166.72723388671875L90.82284,191.31419098377228L93.21417333333332,177.56020045280457L95.60550666666666,201.14748930931094L97.99684,169.99838268756866L100.38817333333333,209.78953456878665L102.77950666666666,178.32372343540192L105.17083999999998,199.99087071418765L107.56217333333333,204.92267167568207L109.95350666666666,216.9455144405365L112.34483999999999,216.82642793655398L114.73617333333333,218.24297404289248L117.12750666666666,226.24347424507144L119.51883999999998,232.77356779575348L121.91017333333333,230.65017557144165L124.30150666666665,228.0646691322327L126.69283999999999,242.6792204976082L129.08417333333333,250.9195834994316L131.47550666666666,252.07936263084414L133.86684,247.8534314632416L136.25817333333333,260.3362480401993L138.64950666666667,264.9076977968216L141.04083999999997,261.24751514196396L143.43217333333334,259.0904960632324L145.82350666666665,260.97387528419495L148.21483999999998,263.9809096455574L150.60617333333334,268.1338480710983L152.99750666666665,262.7350700497627L155.38884,286.09945660829544L157.7801733333333,274.04858207702637L160.17150666666666,267.7532569169998L162.56284,271.7335549592972L164.9541733333333,269.9325186610222L167.34550666666667,276.5820617079735L169.73684,282.9845509529114L172.1281733333333,272.3843250274658L174.51950666666664,281.69746166467667L176.91084,312.7973327636719L179.30217333333331,263.1544951200485L181.69350666666665,301.06186723709106L184.08483999999999,267.8534928560257L186.47617333333332,281.44943779706955L188.86750666666666,276.0269025564194L191.25884,279.88307601213455L193.6501733333333,298.37144976854324L196.04150666666666,292.94515630602837L198.43284,274.5455185174942L200.8241733333333,279.58125418424606L203.21550666666667,288.72425696253777L205.60684,290.63494196534157L207.9981733333333,292.49258628487587L210.38950666666665,299.8679230213165L212.78084,301.1637867093086L215.17217333333332,308.83133536577225L217.56350666666665,289.2749976217747L219.95483999999996,312.5728799253702L222.34617333333333,293.7360601723194L224.73750666666666,298.9885272681713L227.12883999999997,299.74552577733994L229.5201733333333,298.447374612093L231.91150666666667,296.05313381552696L234.30283999999997,312.1862164735794L236.6941733333333,305.49859365820885L239.08550666666667,313.44843922555447L241.47683999999998,313.09105610847473L243.86817333333332,304.0536809563637L246.25950666666665,314.8160330057144L248.65084,305.0692989528179L251.04217333333332,309.9917763322592L253.43350666666666,298.82492727041245L255.82483999999997,287.7766186594963L258.2161733333333,305.3550771474838L260.60750666666667,303.66107976436615L262.99884,324.92848178744316L265.3901733333333,307.33158579468727L267.78150666666664,294.0692057311535L270.17284,298.62777864933014L272.5641733333333,300.25372436642647L274.9555066666667,295.1430339217186L277.34684,305.78017553687096L279.7381733333333,302.06492444872856L282.12950666666666,303.2412197291851L284.52084,327.30831241607666L286.9121733333333,310.1120910644531L289.30350666666664,320.6806850284338L291.69483999999994,313.24984645843506L294.0861733333333,312.85687601566315L296.4775066666666,317.1868639290333L298.86884,309.3651342988014L301.26017333333334,307.2181131541729L303.65150666666665,312.231981664896L306.04283999999996,298.72017583251L308.4341733333333,318.649979442358L310.8255066666666,318.5580704212189L313.21683999999993,312.07822470366955L315.60817333333335,318.37529911100864L317.99950666666666,305.29008588194847L320.39083999999997,315.17222544550896L322.78217333333333,317.06867864727974L325.17350666666664,313.3791389912367L327.56483999999995,297.4968667924404L329.9561733333333,320.3157181888819L332.3475066666666,323.9621806740761L334.73884,323.0561073347926L337.13017333333335,317.35330997407436L339.52150666666665,317.8194906413555L341.91283999999996,304.81070137023926L344.3041733333333,324.48271630704403L346.69550666666663,322.29906579852104L349.08683999999994,323.87042185664177L351.47817333333336,317.0914219915867L353.86950666666667,325.51548021286726L356.26084,316.5333260446787L358.65217333333334,318.21794821321964L361.04350666666664,313.67651103436947L363.43483999999995,316.85821978747845L365.8261733333333,319.93265806138515L368.2175066666666,316.1883143931627L370.60884,323.737883515656L373.00017333333335,319.0496198683977L375.39150666666666,320.99346390366554L377.78283999999996,314.454472348094L380.1741733333333,323.3048446699977L382.56550666666664,321.99444799125195L384.95683999999994,321.2606324851513L387.34817333333336,310.5529952645302L389.73950666666667,314.00606422126293L392.13084,332.38005746528506L394.5221733333333,322.85694739222527L396.91350666666665,307.7861272394657L399.30483999999996,316.3206078708172L401.69617333333326,328.02800564467907L404.0875066666666,319.0366663634777L406.47884,314.52619774639606L408.8701733333333,325.9046564474702L411.26150666666666,317.82775497436523L413.65283999999997,319.91604021191597L416.0441733333333,326.7197814434767L418.43550666666664,322.16105675697327L420.82683999999995,321.0708641856909L423.2181733333333,317.1893282085657L425.6095066666667,304.6331042647362L428.00084,315.0705422312021L430.3921733333333,315.0201175957918L432.78350666666665,323.47357975691557L435.17483999999996,316.71987748146057L437.56617333333327,317.60525634884834L439.95750666666663,315.2413066327572L442.34884,322.00150913000107L444.7401733333333,317.8969973176718L447.13150666666667,318.9831203073263L449.52284,320.51122865080833L451.9141733333333,320.73752461373806L454.30550666666664,316.5328206717968L456.69683999999995,322.2456073611975L459.0881733333333,323.9475146904588L461.4795066666667,326.03498163074255L463.87084,324.47653683274984L466.2621733333333,316.4250620305538L468.65350666666666,319.1878776848316L471.04483999999997,310.57089453935623L473.4361733333333,321.56551314890385L475.8275066666666,318.3818016797304L478.21884,322.3266281783581L480.6101733333333,317.7019108682871L483.0015066666666,324.08434322476387L485.39284,326.66638480871916L487.7841733333333,325.5441871136427L490.1755066666666,317.88817597925663L492.56683999999996,316.81593118608L494.9581733333333,324.0709195509553L497.3495066666666,321.3701028227806L499.74084,326.68506326526403L502.1321733333333,325.209041967988L504.5235066666666,320.9585900455713L506.91483999999997,320.20845553278923L509.3061733333333,319.9284022897482L511.6975066666666,319.60884077847004L514.08884,322.9830746948719L516.4801733333334,315.37889009714127L518.8715066666666,312.69174894690514L521.26284,319.02830189466476L523.6541733333332,318.5859394669533L526.0455066666666,316.1774903386831L528.43684,323.6118414849043L530.8281733333333,325.0170667693019L533.2195066666667,310.07388612627983L535.6108399999999,314.08897510170937L538.0021733333333,316.82297042012215L540.3935066666667,320.74080093204975L542.7848399999999,331.24873020127416L545.1761733333333,321.9502896666527L547.5675066666666,311.07257647812366L549.95884,318.1937043964863L552.3501733333333,320.89807829260826L554.7415066666666,317.71091213822365L557.13284,317.2053295969963" style="fill: none;" fill="none"></path></g></g></g></g></g></g><g transform="translate(50, 378)" clip-path="url(#clip_1)"><clipPath id="clip_1"><rect width="573" height="21"></rect></clipPath><g><g><line x1="0" y1="0" x2="0" y2="5" style="visibility: inherit;" fill="rgb(0, 0, 0)" stroke="rgb(204, 204, 204)" stroke-width="1px"></line><line x1="47.82666666666666" y1="0" x2="47.82666666666666" y2="5" style="visibility: inherit;" fill="rgb(0, 0, 0)" stroke="rgb(204, 204, 204)" stroke-width="1px"></line><line x1="95.65333333333332" y1="0" x2="95.65333333333332" y2="5" style="visibility: inherit;" fill="rgb(0, 0, 0)" stroke="rgb(204, 204, 204)" stroke-width="1px"></line><line x1="143.48" y1="0" x2="143.48" y2="5" style="visibility: inherit;" fill="rgb(0, 0, 0)" stroke="rgb(204, 204, 204)" stroke-width="1px"></line><line x1="191.30666666666664" y1="0" x2="191.30666666666664" y2="5" style="visibility: inherit;" fill="rgb(0, 0, 0)" stroke="rgb(204, 204, 204)" stroke-width="1px"></line><line x1="239.13333333333333" y1="0" x2="239.13333333333333" y2="5" style="visibility: inherit;" fill="rgb(0, 0, 0)" stroke="rgb(204, 204, 204)" stroke-width="1px"></line><line x1="286.96" y1="0" x2="286.96" y2="5" style="visibility: inherit;" fill="rgb(0, 0, 0)" stroke="rgb(204, 204, 204)" stroke-width="1px"></line><line x1="334.7866666666667" y1="0" x2="334.7866666666667" y2="5" style="visibility: inherit;" fill="rgb(0, 0, 0)" stroke="rgb(204, 204, 204)" stroke-width="1px"></line><line x1="382.6133333333333" y1="0" x2="382.6133333333333" y2="5" style="visibility: inherit;" fill="rgb(0, 0, 0)" stroke="rgb(204, 204, 204)" stroke-width="1px"></line><line x1="430.43999999999994" y1="0" x2="430.43999999999994" y2="5" style="visibility: inherit;" fill="rgb(0, 0, 0)" stroke="rgb(204, 204, 204)" stroke-width="1px"></line><line x1="478.26666666666665" y1="0" x2="478.26666666666665" y2="5" style="visibility: inherit;" fill="rgb(0, 0, 0)" stroke="rgb(204, 204, 204)" stroke-width="1px"></line><line x1="526.0933333333332" y1="0" x2="526.0933333333332" y2="5" style="visibility: inherit;" fill="rgb(0, 0, 0)" stroke="rgb(204, 204, 204)" stroke-width="1px"></line><line x1="573.92" y1="0" x2="573.92" y2="5" style="visibility: inherit;" fill="rgb(0, 0, 0)" stroke="rgb(204, 204, 204)" stroke-width="1px"></line></g><g transform="translate(0, 8)"><text x="0" y="0" dx="0em" dy="0.95em" style="text-anchor: middle; visibility: hidden; font-family: Roboto, sans-serif; font-size: 12px; font-weight: 200;" fill="rgb(50, 49, 63)" stroke="none" stroke-width="1px">-1k</text><text x="47.82666666666666" y="0" dx="0em" dy="0.95em" style="text-anchor: middle; visibility: inherit; font-family: Roboto, sans-serif; font-size: 12px; font-weight: 200;" fill="rgb(50, 49, 63)" stroke="none" stroke-width="1px">0</text><text x="95.65333333333332" y="0" dx="0em" dy="0.95em" style="text-anchor: middle; visibility: inherit; font-family: Roboto, sans-serif; font-size: 12px; font-weight: 200;" fill="rgb(50, 49, 63)" stroke="none" stroke-width="1px">1k</text><text x="143.48" y="0" dx="0em" dy="0.95em" style="text-anchor: middle; visibility: inherit; font-family: Roboto, sans-serif; font-size: 12px; font-weight: 200;" fill="rgb(50, 49, 63)" stroke="none" stroke-width="1px">2k</text><text x="191.30666666666664" y="0" dx="0em" dy="0.95em" style="text-anchor: middle; visibility: inherit; font-family: Roboto, sans-serif; font-size: 12px; font-weight: 200;" fill="rgb(50, 49, 63)" stroke="none" stroke-width="1px">3k</text><text x="239.13333333333333" y="0" dx="0em" dy="0.95em" style="text-anchor: middle; visibility: inherit; font-family: Roboto, sans-serif; font-size: 12px; font-weight: 200;" fill="rgb(50, 49, 63)" stroke="none" stroke-width="1px">4k</text><text x="286.96" y="0" dx="0em" dy="0.95em" style="text-anchor: middle; visibility: inherit; font-family: Roboto, sans-serif; font-size: 12px; font-weight: 200;" fill="rgb(50, 49, 63)" stroke="none" stroke-width="1px">5k</text><text x="334.7866666666667" y="0" dx="0em" dy="0.95em" style="text-anchor: middle; visibility: inherit; font-family: Roboto, sans-serif; font-size: 12px; font-weight: 200;" fill="rgb(50, 49, 63)" stroke="none" stroke-width="1px">6k</text><text x="382.6133333333333" y="0" dx="0em" dy="0.95em" style="text-anchor: middle; visibility: inherit; font-family: Roboto, sans-serif; font-size: 12px; font-weight: 200;" fill="rgb(50, 49, 63)" stroke="none" stroke-width="1px">7k</text><text x="430.43999999999994" y="0" dx="0em" dy="0.95em" style="text-anchor: middle; visibility: inherit; font-family: Roboto, sans-serif; font-size: 12px; font-weight: 200;" fill="rgb(50, 49, 63)" stroke="none" stroke-width="1px">8k</text><text x="478.26666666666665" y="0" dx="0em" dy="0.95em" style="text-anchor: middle; visibility: inherit; font-family: Roboto, sans-serif; font-size: 12px; font-weight: 200;" fill="rgb(50, 49, 63)" stroke="none" stroke-width="1px">9k</text><text x="526.0933333333332" y="0" dx="0em" dy="0.95em" style="text-anchor: middle; visibility: inherit; font-family: Roboto, sans-serif; font-size: 12px; font-weight: 200;" fill="rgb(50, 49, 63)" stroke="none" stroke-width="1px">10k</text><text x="573.92" y="0" dx="0em" dy="0.95em" style="text-anchor: middle; visibility: hidden; font-family: Roboto, sans-serif; font-size: 12px; font-weight: 200;" fill="rgb(50, 49, 63)" stroke="none" stroke-width="1px">11k</text></g><line x1="0" y1="0" x2="573.92" y2="0" fill="rgb(0, 0, 0)" stroke="rgb(204, 204, 204)" stroke-width="1px"></line></g></g></g></g></svg>