<svg viewBox="0 0 623.92041015625 400" xmlns="http://www.w3.org/2000/svg"><g><g><g><g><g><line x1="51.5625" y1="378" x2="46.5625" y2="378" style="visibility: inherit;" fill="rgb(0, 0, 0)" stroke="rgb(204, 204, 204)" stroke-width="1px"></line><line x1="51.5625" y1="343.63636363636357" x2="46.5625" y2="343.63636363636357" style="visibility: inherit;" fill="rgb(0, 0, 0)" stroke="rgb(204, 204, 204)" stroke-width="1px"></line><line x1="51.5625" y1="309.2727272727272" x2="46.5625" y2="309.2727272727272" style="visibility: inherit;" fill="rgb(0, 0, 0)" stroke="rgb(204, 204, 204)" stroke-width="1px"></line><line x1="51.5625" y1="274.909090909091" x2="46.5625" y2="274.909090909091" style="visibility: inherit;" fill="rgb(0, 0, 0)" stroke="rgb(204, 204, 204)" stroke-width="1px"></line><line x1="51.5625" y1="240.5454545454546" x2="46.5625" y2="240.5454545454546" style="visibility: inherit;" fill="rgb(0, 0, 0)" stroke="rgb(204, 204, 204)" stroke-width="1px"></line><line x1="51.5625" y1="206.18181818181822" x2="46.5625" y2="206.18181818181822" style="visibility: inherit;" fill="rgb(0, 0, 0)" stroke="rgb(204, 204, 204)" stroke-width="1px"></line><line x1="51.5625" y1="171.81818181818178" x2="46.5625" y2="171.81818181818178" style="visibility: inherit;" fill="rgb(0, 0, 0)" stroke="rgb(204, 204, 204)" stroke-width="1px"></line><line x1="51.5625" y1="137.4545454545454" x2="46.5625" y2="137.4545454545454" style="visibility: inherit;" fill="rgb(0, 0, 0)" stroke="rgb(204, 204, 204)" stroke-width="1px"></line><line x1="51.5625" y1="103.090909090909" x2="46.5625" y2="103.090909090909" style="visibility: inherit;" fill="rgb(0, 0, 0)" stroke="rgb(204, 204, 204)" stroke-width="1px"></line><line x1="51.5625" y1="68.72727272727279" x2="46.5625" y2="68.72727272727279" style="visibility: inherit;" fill="rgb(0, 0, 0)" stroke="rgb(204, 204, 204)" stroke-width="1px"></line><line x1="51.5625" y1="34.36363636363642" x2="46.5625" y2="34.36363636363642" style="visibility: inherit;" fill="rgb(0, 0, 0)" stroke="rgb(204, 204, 204)" stroke-width="1px"></line><line x1="51.5625" y1="0" x2="46.5625" y2="0" style="visibility: inherit;" fill="rgb(0, 0, 0)" stroke="rgb(204, 204, 204)" stroke-width="1px"></line></g><g transform="translate(41.5625, 0)"><text x="0" y="378" dx="0em" dy="0.3em" style="text-anchor: end; visibility: hidden; font-family: Roboto, sans-serif; font-size: 12px; font-weight: 200;" fill="rgb(50, 49, 63)" stroke="none" stroke-width="1px">0.76</text><text x="0" y="343.63636363636357" dx="0em" dy="0.3em" style="text-anchor: end; visibility: inherit; font-family: Roboto, sans-serif; font-size: 12px; font-weight: 200;" fill="rgb(50, 49, 63)" stroke="none" stroke-width="1px">0.78</text><text x="0" y="309.2727272727272" dx="0em" dy="0.3em" style="text-anchor: end; visibility: inherit; font-family: Roboto, sans-serif; font-size: 12px; font-weight: 200;" fill="rgb(50, 49, 63)" stroke="none" stroke-width="1px">0.8</text><text x="0" y="274.909090909091" dx="0em" dy="0.3em" style="text-anchor: end; visibility: inherit; font-family: Roboto, sans-serif; font-size: 12px; font-weight: 200;" fill="rgb(50, 49, 63)" stroke="none" stroke-width="1px">0.82</text><text x="0" y="240.5454545454546" dx="0em" dy="0.3em" style="text-anchor: end; visibility: inherit; font-family: Roboto, sans-serif; font-size: 12px; font-weight: 200;" fill="rgb(50, 49, 63)" stroke="none" stroke-width="1px">0.84</text><text x="0" y="206.18181818181822" dx="0em" dy="0.3em" style="text-anchor: end; visibility: inherit; font-family: Roboto, sans-serif; font-size: 12px; font-weight: 200;" fill="rgb(50, 49, 63)" stroke="none" stroke-width="1px">0.86</text><text x="0" y="171.81818181818178" dx="0em" dy="0.3em" style="text-anchor: end; visibility: inherit; font-family: Roboto, sans-serif; font-size: 12px; font-weight: 200;" fill="rgb(50, 49, 63)" stroke="none" stroke-width="1px">0.88</text><text x="0" y="137.4545454545454" dx="0em" dy="0.3em" style="text-anchor: end; visibility: inherit; font-family: Roboto, sans-serif; font-size: 12px; font-weight: 200;" fill="rgb(50, 49, 63)" stroke="none" stroke-width="1px">0.9</text><text x="0" y="103.090909090909" dx="0em" dy="0.3em" style="text-anchor: end; visibility: inherit; font-family: Roboto, sans-serif; font-size: 12px; font-weight: 200;" fill="rgb(50, 49, 63)" stroke="none" stroke-width="1px">0.92</text><text x="0" y="68.72727272727279" dx="0em" dy="0.3em" style="text-anchor: end; visibility: inherit; font-family: Roboto, sans-serif; font-size: 12px; font-weight: 200;" fill="rgb(50, 49, 63)" stroke="none" stroke-width="1px">0.94</text><text x="0" y="34.36363636363642" dx="0em" dy="0.3em" style="text-anchor: end; visibility: inherit; font-family: Roboto, sans-serif; font-size: 12px; font-weight: 200;" fill="rgb(50, 49, 63)" stroke="none" stroke-width="1px">0.96</text><text x="0" y="0" dx="0em" dy="0.3em" style="text-anchor: end; visibility: hidden; font-family: Roboto, sans-serif; font-size: 12px; font-weight: 200;" fill="rgb(50, 49, 63)" stroke="none" stroke-width="1px">0.98</text></g><line x1="51.5625" y1="0" x2="51.5625" y2="378" fill="rgb(0, 0, 0)" stroke="rgb(204, 204, 204)" stroke-width="1px"></line></g></g><g transform="translate(51, 0)" clip-path="url(#clip_0)"><clipPath id="clip_0"><rect width="572" height="377"></rect></clipPath><g><g><g><line x1="0" y1="0" x2="0" y2="378" fill="rgb(0, 0, 0)" stroke="rgb(60, 60, 60)" stroke-width="1px" opacity="0.25"></line><line x1="47.696458333333325" y1="0" x2="47.696458333333325" y2="378" fill="rgb(0, 0, 0)" stroke="rgb(60, 60, 60)" stroke-width="1px" opacity="0.25"></line><line x1="95.39291666666665" y1="0" x2="95.39291666666665" y2="378" fill="rgb(0, 0, 0)" stroke="rgb(60, 60, 60)" stroke-width="1px" opacity="0.25"></line><line x1="143.089375" y1="0" x2="143.089375" y2="378" fill="rgb(0, 0, 0)" stroke="rgb(60, 60, 60)" stroke-width="1px" opacity="0.25"></line><line x1="190.7858333333333" y1="0" x2="190.7858333333333" y2="378" fill="rgb(0, 0, 0)" stroke="rgb(60, 60, 60)" stroke-width="1px" opacity="0.25"></line><line x1="238.48229166666667" y1="0" x2="238.48229166666667" y2="378" fill="rgb(0, 0, 0)" stroke="rgb(60, 60, 60)" stroke-width="1px" opacity="0.25"></line><line x1="286.17875" y1="0" x2="286.17875" y2="378" fill="rgb(0, 0, 0)" stroke="rgb(60, 60, 60)" stroke-width="1px" opacity="0.25"></line><line x1="333.8752083333333" y1="0" x2="333.8752083333333" y2="378" fill="rgb(0, 0, 0)" stroke="rgb(60, 60, 60)" stroke-width="1px" opacity="0.25"></line><line x1="381.5716666666666" y1="0" x2="381.5716666666666" y2="378" fill="rgb(0, 0, 0)" stroke="rgb(60, 60, 60)" stroke-width="1px" opacity="0.25"></line><line x1="429.26812499999994" y1="0" x2="429.26812499999994" y2="378" fill="rgb(0, 0, 0)" stroke="rgb(60, 60, 60)" stroke-width="1px" opacity="0.25"></line><line x1="476.96458333333334" y1="0" x2="476.96458333333334" y2="378" fill="rgb(0, 0, 0)" stroke="rgb(60, 60, 60)" stroke-width="1px" opacity="0.25"></line><line x1="524.6610416666666" y1="0" x2="524.6610416666666" y2="378" fill="rgb(0, 0, 0)" stroke="rgb(60, 60, 60)" stroke-width="1px" opacity="0.25"></line><line x1="572.3575" y1="0" x2="572.3575" y2="378" fill="rgb(0, 0, 0)" stroke="rgb(60, 60, 60)" stroke-width="1px" opacity="0.25"></line></g><g><line x1="0" y1="378" x2="572.3575" y2="378" fill="rgb(0, 0, 0)" stroke="rgb(60, 60, 60)" stroke-width="1px" opacity="0.25"></line><line x1="0" y1="343.63636363636357" x2="572.3575" y2="343.63636363636357" fill="rgb(0, 0, 0)" stroke="rgb(60, 60, 60)" stroke-width="1px" opacity="0.25"></line><line x1="0" y1="309.2727272727272" x2="572.3575" y2="309.2727272727272" fill="rgb(0, 0, 0)" stroke="rgb(60, 60, 60)" stroke-width="1px" opacity="0.25"></line><line x1="0" y1="274.909090909091" x2="572.3575" y2="274.909090909091" fill="rgb(0, 0, 0)" stroke="rgb(60, 60, 60)" stroke-width="1px" opacity="0.25"></line><line x1="0" y1="240.5454545454546" x2="572.3575" y2="240.5454545454546" fill="rgb(0, 0, 0)" stroke="rgb(60, 60, 60)" stroke-width="1px" opacity="0.25"></line><line x1="0" y1="206.18181818181822" x2="572.3575" y2="206.18181818181822" fill="rgb(0, 0, 0)" stroke="rgb(60, 60, 60)" stroke-width="1px" opacity="0.25"></line><line x1="0" y1="171.81818181818178" x2="572.3575" y2="171.81818181818178" fill="rgb(0, 0, 0)" stroke="rgb(60, 60, 60)" stroke-width="1px" opacity="0.25"></line><line x1="0" y1="137.4545454545454" x2="572.3575" y2="137.4545454545454" fill="rgb(0, 0, 0)" stroke="rgb(60, 60, 60)" stroke-width="1px" opacity="0.25"></line><line x1="0" y1="103.090909090909" x2="572.3575" y2="103.090909090909" fill="rgb(0, 0, 0)" stroke="rgb(60, 60, 60)" stroke-width="1px" opacity="0.25"></line><line x1="0" y1="68.72727272727279" x2="572.3575" y2="68.72727272727279" fill="rgb(0, 0, 0)" stroke="rgb(60, 60, 60)" stroke-width="1px" opacity="0.25"></line><line x1="0" y1="34.36363636363642" x2="572.3575" y2="34.36363636363642" fill="rgb(0, 0, 0)" stroke="rgb(60, 60, 60)" stroke-width="1px" opacity="0.25"></line><line x1="0" y1="0" x2="572.3575" y2="0" fill="rgb(0, 0, 0)" stroke="rgb(60, 60, 60)" stroke-width="1px" opacity="0.25"></line></g></g></g><g><g><line x1="0" y1="1683.818181818182" x2="572.3575" y2="1683.818181818182" fill="rgb(0, 0, 0)" stroke="rgb(153, 153, 153)" stroke-width="1.5px"></line></g></g><g><g><line x1="47.696458333333325" y1="0" x2="47.696458333333325" y2="378" fill="rgb(0, 0, 0)" stroke="rgb(153, 153, 153)" stroke-width="1.5px"></line></g></g><g><g><g><g><g><path stroke="rgb(255, 112, 67)" stroke-width="2px" d="M71.25850874999999,395.8561878562814L73.404849375,353.69782683882215L75.55118999999999,319.4870382490648L77.697530625,300.90274918938934L79.84387125,288.2072266680825L81.99021187499999,274.0191021987958L84.1365525,262.998747609935L86.28289312499999,260.33179592383965L88.42923375,256.1025270231752L90.57557437499999,253.68462886984526L92.721915,243.86845445490005L94.868255625,238.57640582585012L97.01459625,236.71578712434047L99.16093687499999,232.97030181987986L101.30727749999998,224.74773777087182L103.45361812499999,222.08484758202488L105.59995874999998,214.98985997577896L107.74629937499999,207.3867547623091L109.89264,202.94438854106767L112.038980625,197.64985824477418L114.18532125,190.40997985768752L116.33166187499998,185.94655955589963L118.47800249999999,178.24927305199748L120.62434312499998,175.54300825709822L122.77068374999999,175.23380496732347L124.917024375,169.790060882855L127.06336499999999,167.71883515116386L129.209705625,164.8030625752883L131.35604625,162.33655385798167L133.50238687499998,155.83745527855498L135.64872749999998,147.5163131248924L137.79506812499997,147.4233273105374L139.94140875,138.76315755270065L142.087749375,130.93794466925848L144.23408999999998,126.36235177935656L146.38043062499997,126.72412353899148L148.52677125,119.41237609337783L150.673111875,114.30828244905564L152.8194525,113.03839824069547L154.96579312499998,110.4838957375402L157.11213375,110.98279492772546L159.258474375,106.02391238204974L161.40481499999999,106.15571034773698L163.55115562499998,108.2663488545602L165.69749624999997,106.4256044655726L167.843836875,103.17010423013451L169.9901775,100.97777537495276L172.136518125,97.63077736978806L174.28285874999997,93.7105127139175L176.429199375,92.79240330997452L178.57554,89.97094922627998L180.72188062499998,98.19701055777412L182.86822124999998,97.7549314222637L185.01456187499997,101.31381564650196L187.1609025,94.36679241573039L189.30724312499999,93.30570597034541L191.45358375,91.35449858817218L193.59992437499997,87.19614054042654L195.746265,86.49369768991482L197.892605625,88.10383267166294L200.03894624999998,87.0383129686565L202.185286875,90.22317381704369L204.33162749999997,85.20279016280699L206.477968125,80.39798799212956L208.62430874999998,80.74172805743774L210.770649375,78.91641236921375L212.91698999999997,79.13577847122191L215.06333062499996,77.95284261748432L217.20967124999999,76.52603592812885L219.35601187499998,79.61361845934312L221.5023525,76.3274397929381L223.64869312499997,76.26783941051407L225.79503375,78.02465115919505L227.94137437499998,75.49359425213262L230.087715,74.81149915964471L232.234055625,76.91181829475366L234.38039624999996,75.54289874593397L236.52673687499998,76.51411899477768L238.67307749999998,73.27271943853985L240.819418125,70.01332418985464L242.96575874999996,71.52333712227808L245.11209937499999,69.56120513792712L247.25843999999998,68.14489723339672L249.404780625,66.45861440357554L251.55112125,67.59789830772813L253.69746187499996,67.5644644377536L255.84380249999998,66.34934247546286L257.990143125,69.2054132543595L260.13648374999997,70.79956184706082L262.28282437499996,69.36596868671646L264.429165,69.93986218008902L266.575505625,66.93804206911467L268.72184624999994,65.25648484181346L270.868186875,67.95218833634019L273.0145275,67.6575445802843L275.160868125,68.55628512767346L277.30720875,67.06392876405134L279.45354937499997,66.76606624835438L281.59988999999996,67.42388779068578L283.746230625,66.38449036185872L285.89257125,67.19494225878846L288.03891187499994,64.69357977850476L290.1852525,65.10482814310654L292.331593125,64.75406682403796L294.47793375,62.03399287734841L296.62427437499997,61.477516275004284L298.77061499999996,60.068062547928214L300.916955625,61.25399100373806L303.06329624999995,62.802087128973426L305.209636875,61.10183377422968L307.3559775,65.10087510723366L309.50231812499993,63.915155950764714L311.64865875,62.72570799369049L313.794999375,63.9241050722181L315.94134,63.44812264367556L318.08768062499996,62.923504472630064L320.23402124999996,64.28181167350169L322.380361875,63.66274660444571L324.52670249999994,64.12780565011485L326.673043125,63.211820401857054L328.81938375,64.45480123103778L330.965724375,62.69097257329796L333.112065,63.06672476823293L335.25840562499997,62.21664928417143L337.40474625,60.87006494198492L339.551086875,61.496163726252085L341.69742749999995,61.27431265898288L343.843768125,60.304662966871824L345.99010875,61.27645738046774L348.1364493749999,61.85953402862503L350.28279,61.133812251850195L352.42913062499997,60.81787306042179L354.57547125,60.15029308237175L356.72181187499996,59.86927993482514L358.86815249999995,60.2981823841267L361.014493125,60.31649513978778L363.16083374999994,60.327482793184416L365.307174375,59.49753633347303L367.453515,60.55315268650847L369.599855625,60.11099569730727L371.74619624999997,60.44321184161592L373.89253687499996,60.16452506500819L376.0388775,59.997312999043494L378.18521812499995,59.53846317090834L380.33155874999994,59.980198451139934L382.477899375,59.64768831680256L384.62424,59.68721095012018L386.7705806249999,59.71092453011071L388.91692125,59.72515267810503L391.06326187499997,59.25567310370864L393.2096025,59.2129731083438L395.35594312499995,58.94836536185182L397.50228374999995,58.78960071395678L399.648624375,59.65037485160569L401.79496499999993,59.68882287100198L403.941305625,59.95087943191282L406.08764625,60.10811336845937L408.233986875,59.96346598111416L410.38032749999996,59.99617142334361L412.52666812499996,59.776806939408075L414.67300875,60.12320471224008L416.81934937499994,59.97252078738256L418.96568999999994,60.12109818174124L421.112030625,59.85176299444668L423.25837125,59.69016188207012L425.404711875,59.47366637536074L427.55105249999997,59.46330391061838L429.69739312499996,59.457086431773234L431.84373374999996,59.21432723054607L433.99007437499995,59.54668817300273L436.136415,59.387582149920284L438.282755625,59.41165337535408L440.42909624999993,59.306561271331155L442.575436875,59.24350600891739L444.7217775,59.32520769075265L446.868118125,59.37422869985378L449.01445874999996,59.523135179950955L451.16079937499995,59.492985193372625L453.30714,59.355360362142335L455.45348062499994,59.392320302687395L457.59982124999993,59.533990141651024L459.746161875,59.37996333110929L461.8925025,59.407082084067596L464.03884312499997,59.42335333584261L466.18518374999996,59.6721038361806L468.33152437499996,59.58236638711032L470.47786499999995,59.40898907838499L472.62420562499995,59.543991407069676L474.77054625,59.62499280428045L476.916886875,59.67359364260679L479.0632274999999,59.82224802023907L481.209568125,59.91144064681855L483.35590874999997,59.964956222766226L485.50224937499996,59.99706556833484L487.64858999999996,60.01633117567613L489.79493062499995,60.14738441471744L491.94127125,60.10652248350547L494.08761187499994,60.08200532477828L496.2339525,60.06729502954231L498.380293125,59.81948110312758L500.52663375,59.790286621915115L502.67297437499997,59.892263807824044L504.81931499999996,59.833956244733024L506.965655625,59.918465581514994L509.11199624999995,59.73018343431091L511.25833687499994,59.736708020625194L513.4046774999999,59.74062277241373L515.551018125,59.862465498123505L517.6973587499999,59.8160772589127L519.8436993749999,59.78824431538619L521.99004,59.771544549270246L524.1363806249999,59.76152468960083L526.28272125,59.75551277379915L528.429061875,59.751905624318134L530.5754025,59.86923520926606L532.721743125,59.8201390855983L534.86808375,59.79068141139763L537.014424375,59.77300680687715L539.160765,59.76240204416489L541.307105625,59.75603918653755L543.45344625,59.75222147196118L545.599786875,59.749930843215225L547.7461275,59.748556465967816L549.8924681249999,59.747731839619284L552.0388087499999,59.74723706381022L554.185149375,59.7469401983247L556.3314899999999,59.74676207903338" style="fill: none;" fill="none"></path></g></g></g></g><g opacity="0.2"><g><g><g><path stroke="rgb(255, 112, 67)" stroke-width="2px" d="M66.9658275,407.80456202680415L69.112168125,344.7657056938518L71.25850874999999,323.55359712514013L73.404849375,290.6897092515772L75.55118999999999,268.28255952488297L77.697530625,273.0627241568132L79.84387125,269.17886599627406L81.99021187499999,252.74692205949262L84.1365525,246.47287917137146L86.28289312499999,256.33204553344035L88.42923375,249.75926795872775L90.57557437499999,250.05800264531914L92.721915,229.14473117481577L94.868255625,230.63850701938975L97.01459625,233.92489580674604L99.16093687499999,227.3521182320335L101.30727749999998,212.41395013982597L103.45361812499999,218.09052365476433L105.59995874999998,204.34739672053942L107.74629937499999,195.98210861466146L109.89264,196.28084330125287L112.038980625,189.70806572654033L114.18532125,179.55016467788002L116.33166187499998,179.25142999128863L118.47800249999999,166.70334421504626L120.62434312499998,171.48361125859347L122.77068374999999,174.77000004594973L124.917024375,161.62444489652458L127.06336499999999,164.61199658567253L129.209705625,160.42940373854205L131.35604625,158.6367907957597L133.50238687499998,146.0888074311343L135.64872749999998,135.03459991108286L137.79506812499997,147.28384858911684L139.94140875,125.77290292219682L142.087749375,119.20012534748423L144.23408999999998,119.49896244569258L146.38043062499997,127.26678117838772L148.52677125,108.44475492564113L150.673111875,106.65214198285882L152.8194525,111.13357192819765L154.96579312499998,106.65214198285882L157.11213375,111.73114371299744L159.258474375,98.58558856357224L161.40481499999999,106.35340729626739L163.55115562499998,111.43230661478908L165.69749624999997,103.66448788209395L167.843836875,98.28685387698086L169.9901775,97.68928209218109L172.136518125,92.6102803620425L174.28285874999997,87.83011573011224L176.429199375,91.41523920405992L178.57554,85.73876810073853L180.72188062499998,110.53610255501485L182.86822124999998,97.09181271899827L185.01456187499997,106.65214198285882L187.1609025,83.94625756957312L189.30724312499999,91.71407630226827L191.45358375,88.42768751491197L193.59992437499997,80.95860346880825L195.746265,85.4400334141471L197.892605625,90.51903514428572L200.03894624999998,85.4400334141471L202.185286875,95.00046508962457L204.33162749999997,77.67221468145196L206.477968125,73.19078473611312L208.62430874999998,81.25733815539964L210.770649375,76.17843883687799L212.91698999999997,79.46482762423427L215.06333062499996,76.17843883687799L217.20967124999999,74.38582589409566L219.35601187499998,84.24499225616455L221.5023525,71.39817179333079L223.64869312499997,76.17843883687799L225.79503375,80.65986878221682L227.94137437499998,71.69700889153914L230.087715,73.78835652091284L232.234055625,80.06229699741709L234.38039624999996,73.48951942270449L236.52673687499998,77.97094936804334L238.67307749999998,68.41062010418284L240.819418125,65.12423131682654L242.96575874999996,73.78835652091284L245.11209937499999,66.61800716140051L247.25843999999998,66.02043537660079L249.404780625,63.92919015884395L251.55112125,69.30682416395703L253.69746187499996,67.51431363279168L255.84380249999998,64.52665953202681L257.990143125,73.48951942270449L260.13648374999997,73.19078473611312L262.28282437499996,67.21557894620025L264.429165,70.80070242014797L266.575505625,62.435311902653055L268.72184624999994,62.73414900086141L270.868186875,71.99574357813052L273.0145275,67.21557894620025L275.160868125,69.90439594875681L277.30720875,64.82539421861819L279.45354937499997,66.31927247480908L281.59988999999996,68.41062010418284L283.746230625,64.82539421861819L285.89257125,68.41062010418284L288.03891187499994,60.94153605807908L290.1852525,65.72170069000936L292.331593125,64.22792484543538L294.47793375,57.95388195731421L296.62427437499997,60.6428013714877L298.77061499999996,57.95388195731421L300.916955625,63.03288368745283L303.06329624999995,65.12423131682654L305.209636875,58.55145374211395L307.3559775,71.09943710673936L309.50231812499993,62.136577216061674L311.64865875,60.94153605807908L313.794999375,65.72170069000936L315.94134,62.73414900086141L318.08768062499996,62.136577216061674L320.23402124999996,66.31927247480908L322.380361875,62.73414900086141L324.52670249999994,64.82539421861819L326.673043125,61.837842529470244L328.81938375,66.31927247480908L330.965724375,60.045229586687924L333.112065,63.63035306063565L335.25840562499997,60.94153605807908L337.40474625,58.85018842870537L339.551086875,62.435311902653055L341.69742749999995,60.94153605807908L343.843768125,58.85018842870537L345.99010875,62.73414900086141L348.1364493749999,62.73414900086141L350.28279,60.045229586687924L352.42913062499997,60.34396427327935L354.57547125,59.14892311529676L356.72181187499996,59.447760213505106L358.86815249999995,60.94153605807908L361.014493125,60.34396427327935L363.16083374999994,60.34396427327935L365.307174375,58.2526166439056L367.453515,62.136577216061674L369.599855625,59.447760213505106L371.74619624999997,60.94153605807908L373.89253687499996,59.746494900096536L376.0388775,59.746494900096536L378.18521812499995,58.85018842870537L380.33155874999994,60.6428013714877L382.477899375,59.14892311529676L384.62424,59.746494900096536L386.7705806249999,59.746494900096536L388.91692125,59.746494900096536L391.06326187499997,58.55145374211395L393.2096025,59.14892311529676L395.35594312499995,58.55145374211395L397.50228374999995,58.55145374211395L399.648624375,60.94153605807908L401.79496499999993,59.746494900096536L403.941305625,60.34396427327935L406.08764625,60.34396427327935L408.233986875,59.746494900096536L410.38032749999996,60.045229586687924L412.52666812499996,59.447760213505106L414.67300875,60.6428013714877L416.81934937499994,59.746494900096536L418.96568999999994,60.34396427327935L421.112030625,59.447760213505106L423.25837125,59.447760213505106L425.404711875,59.14892311529676L427.55105249999997,59.447760213505106L429.69739312499996,59.447760213505106L431.84373374999996,58.85018842870537L433.99007437499995,60.045229586687924L436.136415,59.14892311529676L438.282755625,59.447760213505106L440.42909624999993,59.14892311529676L442.575436875,59.14892311529676L444.7217775,59.447760213505106L446.868118125,59.447760213505106L449.01445874999996,59.746494900096536L451.16079937499995,59.447760213505106L453.30714,59.14892311529676L455.45348062499994,59.447760213505106L457.59982124999993,59.746494900096536L459.746161875,59.14892311529676L461.8925025,59.447760213505106L464.03884312499997,59.447760213505106L466.18518374999996,60.045229586687924L468.33152437499996,59.447760213505106L470.47786499999995,59.14892311529676L472.62420562499995,59.746494900096536L474.77054625,59.746494900096536L476.916886875,59.746494900096536L479.0632274999999,60.045229586687924L481.209568125,60.045229586687924L483.35590874999997,60.045229586687924L485.50224937499996,60.045229586687924L487.64858999999996,60.045229586687924L489.79493062499995,60.34396427327935L491.94127125,60.045229586687924L494.08761187499994,60.045229586687924L496.2339525,60.045229586687924L498.380293125,59.447760213505106L500.52663375,59.746494900096536L502.67297437499997,60.045229586687924L504.81931499999996,59.746494900096536L506.965655625,60.045229586687924L509.11199624999995,59.447760213505106L511.25833687499994,59.746494900096536L513.4046774999999,59.746494900096536L515.551018125,60.045229586687924L517.6973587499999,59.746494900096536L519.8436993749999,59.746494900096536L521.99004,59.746494900096536L524.1363806249999,59.746494900096536L526.28272125,59.746494900096536L528.429061875,59.746494900096536L530.5754025,60.045229586687924L532.721743125,59.746494900096536L534.86808375,59.746494900096536L537.014424375,59.746494900096536L539.160765,59.746494900096536L541.307105625,59.746494900096536L543.45344625,59.746494900096536L545.599786875,59.746494900096536L547.7461275,59.746494900096536L549.8924681249999,59.746494900096536L552.0388087499999,59.746494900096536L554.185149375,59.746494900096536L556.3314899999999,59.746494900096536" style="fill: none;" fill="none"></path></g></g></g></g></g></g><g transform="translate(51, 378)" clip-path="url(#clip_1)"><clipPath id="clip_1"><rect width="572" height="21"></rect></clipPath><g><g><line x1="0" y1="0" x2="0" y2="5" style="visibility: inherit;" fill="rgb(0, 0, 0)" stroke="rgb(204, 204, 204)" stroke-width="1px"></line><line x1="47.696458333333325" y1="0" x2="47.696458333333325" y2="5" style="visibility: inherit;" fill="rgb(0, 0, 0)" stroke="rgb(204, 204, 204)" stroke-width="1px"></line><line x1="95.39291666666665" y1="0" x2="95.39291666666665" y2="5" style="visibility: inherit;" fill="rgb(0, 0, 0)" stroke="rgb(204, 204, 204)" stroke-width="1px"></line><line x1="143.089375" y1="0" x2="143.089375" y2="5" style="visibility: inherit;" fill="rgb(0, 0, 0)" stroke="rgb(204, 204, 204)" stroke-width="1px"></line><line x1="190.7858333333333" y1="0" x2="190.7858333333333" y2="5" style="visibility: inherit;" fill="rgb(0, 0, 0)" stroke="rgb(204, 204, 204)" stroke-width="1px"></line><line x1="238.48229166666667" y1="0" x2="238.48229166666667" y2="5" style="visibility: inherit;" fill="rgb(0, 0, 0)" stroke="rgb(204, 204, 204)" stroke-width="1px"></line><line x1="286.17875" y1="0" x2="286.17875" y2="5" style="visibility: inherit;" fill="rgb(0, 0, 0)" stroke="rgb(204, 204, 204)" stroke-width="1px"></line><line x1="333.8752083333333" y1="0" x2="333.8752083333333" y2="5" style="visibility: inherit;" fill="rgb(0, 0, 0)" stroke="rgb(204, 204, 204)" stroke-width="1px"></line><line x1="381.5716666666666" y1="0" x2="381.5716666666666" y2="5" style="visibility: inherit;" fill="rgb(0, 0, 0)" stroke="rgb(204, 204, 204)" stroke-width="1px"></line><line x1="429.26812499999994" y1="0" x2="429.26812499999994" y2="5" style="visibility: inherit;" fill="rgb(0, 0, 0)" stroke="rgb(204, 204, 204)" stroke-width="1px"></line><line x1="476.96458333333334" y1="0" x2="476.96458333333334" y2="5" style="visibility: inherit;" fill="rgb(0, 0, 0)" stroke="rgb(204, 204, 204)" stroke-width="1px"></line><line x1="524.6610416666666" y1="0" x2="524.6610416666666" y2="5" style="visibility: inherit;" fill="rgb(0, 0, 0)" stroke="rgb(204, 204, 204)" stroke-width="1px"></line><line x1="572.3575" y1="0" x2="572.3575" y2="5" style="visibility: inherit;" fill="rgb(0, 0, 0)" stroke="rgb(204, 204, 204)" stroke-width="1px"></line></g><g transform="translate(0, 8)"><text x="0" y="0" dx="0em" dy="0.95em" style="text-anchor: middle; visibility: hidden; font-family: Roboto, sans-serif; font-size: 12px; font-weight: 200;" fill="rgb(50, 49, 63)" stroke="none" stroke-width="1px">-1k</text><text x="47.696458333333325" y="0" dx="0em" dy="0.95em" style="text-anchor: middle; visibility: inherit; font-family: Roboto, sans-serif; font-size: 12px; font-weight: 200;" fill="rgb(50, 49, 63)" stroke="none" stroke-width="1px">0</text><text x="95.39291666666665" y="0" dx="0em" dy="0.95em" style="text-anchor: middle; visibility: inherit; font-family: Roboto, sans-serif; font-size: 12px; font-weight: 200;" fill="rgb(50, 49, 63)" stroke="none" stroke-width="1px">1k</text><text x="143.089375" y="0" dx="0em" dy="0.95em" style="text-anchor: middle; visibility: inherit; font-family: Roboto, sans-serif; font-size: 12px; font-weight: 200;" fill="rgb(50, 49, 63)" stroke="none" stroke-width="1px">2k</text><text x="190.7858333333333" y="0" dx="0em" dy="0.95em" style="text-anchor: middle; visibility: inherit; font-family: Roboto, sans-serif; font-size: 12px; font-weight: 200;" fill="rgb(50, 49, 63)" stroke="none" stroke-width="1px">3k</text><text x="238.48229166666667" y="0" dx="0em" dy="0.95em" style="text-anchor: middle; visibility: inherit; font-family: Roboto, sans-serif; font-size: 12px; font-weight: 200;" fill="rgb(50, 49, 63)" stroke="none" stroke-width="1px">4k</text><text x="286.17875" y="0" dx="0em" dy="0.95em" style="text-anchor: middle; visibility: inherit; font-family: Roboto, sans-serif; font-size: 12px; font-weight: 200;" fill="rgb(50, 49, 63)" stroke="none" stroke-width="1px">5k</text><text x="333.8752083333333" y="0" dx="0em" dy="0.95em" style="text-anchor: middle; visibility: inherit; font-family: Roboto, sans-serif; font-size: 12px; font-weight: 200;" fill="rgb(50, 49, 63)" stroke="none" stroke-width="1px">6k</text><text x="381.5716666666666" y="0" dx="0em" dy="0.95em" style="text-anchor: middle; visibility: inherit; font-family: Roboto, sans-serif; font-size: 12px; font-weight: 200;" fill="rgb(50, 49, 63)" stroke="none" stroke-width="1px">7k</text><text x="429.26812499999994" y="0" dx="0em" dy="0.95em" style="text-anchor: middle; visibility: inherit; font-family: Roboto, sans-serif; font-size: 12px; font-weight: 200;" fill="rgb(50, 49, 63)" stroke="none" stroke-width="1px">8k</text><text x="476.96458333333334" y="0" dx="0em" dy="0.95em" style="text-anchor: middle; visibility: inherit; font-family: Roboto, sans-serif; font-size: 12px; font-weight: 200;" fill="rgb(50, 49, 63)" stroke="none" stroke-width="1px">9k</text><text x="524.6610416666666" y="0" dx="0em" dy="0.95em" style="text-anchor: middle; visibility: inherit; font-family: Roboto, sans-serif; font-size: 12px; font-weight: 200;" fill="rgb(50, 49, 63)" stroke="none" stroke-width="1px">10k</text><text x="572.3575" y="0" dx="0em" dy="0.95em" style="text-anchor: middle; visibility: hidden; font-family: Roboto, sans-serif; font-size: 12px; font-weight: 200;" fill="rgb(50, 49, 63)" stroke="none" stroke-width="1px">11k</text></g><line x1="0" y1="0" x2="572.3575" y2="0" fill="rgb(0, 0, 0)" stroke="rgb(204, 204, 204)" stroke-width="1px"></line></g></g></g></g></svg>